<?xml version="1.0" encoding="UTF-8"?>
<svg width="200px" height="200px" viewBox="0 0 200 200" version="1.1" xmlns="http://www.w3.org/2000/svg" xmlns:xlink="http://www.w3.org/1999/xlink">
    <title>Group 6</title>
    <g id="Page-1" stroke="none" stroke-width="1" fill="none" fill-rule="evenodd">
        <g id="Group-6">
            <circle id="Oval" fill="#F7ECD8" cx="100" cy="100" r="100"></circle>
            <g id="Group-4" transform="translate(50.000000, 50.000000)" fill="#C29F60" fill-rule="nonzero">
                <path d="M98.7411625,54.6173095 C92.3740829,53.3436079 92.189799,48.6596901 92.1849776,48.4252281 C92.1786998,47.5686474 91.4818596,46.8752971 90.6224931,46.8752971 L59.3728034,46.8752971 C58.508562,46.8752971 57.8103189,47.5756294 57.8103189,48.4377816 C57.8103189,48.4880043 57.7349839,53.4202321 51.254134,54.7191478 C50.5245162,54.8663285 49.9978607,55.5066757 49.9978607,56.2502397 L49.9978607,73.4375691 C49.9978607,74.1190623 50.2761794,90.2315095 74.4172611,99.8890922 C74.6035093,99.9644271 74.8002038,100 74.9969161,100 C75.1936284,100 75.3903229,99.9637289 75.5765711,99.8890922 C99.7191885,90.2316881 99.9959715,74.4161308 99.9959715,73.7482803 L99.9959715,56.1500622 C99.9959715,55.4050874 99.4693338,54.7640581 98.7396982,54.6189702 L98.7411625,54.6173095 Z M96.8724311,73.7385482 C96.8661533,74.3182032 96.476935,87.9194789 74.9976482,96.7508198 C53.5121473,87.9137646 53.1300082,74.0206883 53.1228654,73.4367655 L53.1228654,57.475674 C58.1304943,56.0352597 60.1665455,52.5601871 60.7476111,49.9994982 L89.2508996,49.9994982 C89.838233,52.5246517 91.8771235,55.9446178 96.8708239,57.3772821 L96.8708239,73.7394411 L96.8724311,73.7385482 Z" id="Shape"></path>
                <path d="M87.4841314,53.9298163 C87.2092949,53.4345713 86.6854429,53.12486 86.1183593,53.12486 L63.9060798,53.12486 C63.3341033,53.12486 62.8074657,53.4373569 62.534022,53.9388877 C61.29032,56.2170793 59.4572668,58.0075973 57.0828261,59.254192 C56.5701348,59.5248322 56.2485665,60.0570591 56.2485665,60.636714 L56.2485665,73.4351584 C56.2485665,73.5495537 56.7410259,85.0959355 74.3555296,93.068892 C74.5599026,93.1623625 74.7789361,93.2077014 74.9993625,93.2077014 C75.2197889,93.2077014 75.4367153,93.1623607 75.6418026,93.068892 C92.8855599,85.2864693 93.7184088,74.2994355 93.7469799,73.7458696 L93.7469799,60.544215 C93.7469799,59.9631672 93.4233224,59.428851 92.9092383,59.1596037 C90.5501545,57.9249552 88.7246369,56.1657049 87.4823279,53.9266199 L87.4841314,53.9298163 Z M90.6266002,73.6564062 C90.6028844,74.037956 89.9171965,82.9530996 75.0017553,89.9278518 C60.0395825,82.901493 59.3769105,73.476408 59.3740534,73.4373012 L59.3740534,61.5533121 C61.602067,60.2175218 63.4552628,58.4067362 64.8036423,56.2499719 L85.2302252,56.2499719 C86.5820511,58.3892363 88.3914438,60.1360047 90.6235645,61.4625987 L90.6266002,73.6564062 Z" id="Shape"></path>
                <path d="M84.373448,67.1868276 L79.6859945,67.1868276 L79.6859945,62.4993741 C79.6859945,61.6351327 78.9877515,60.9368896 78.1235101,60.9368896 L71.8735721,60.9368896 C71.0093307,60.9368896 70.3110876,61.6351327 70.3110876,62.4993741 L70.3110876,67.1868276 L65.6236342,67.1868276 C64.7593927,67.1868276 64.0611497,67.8850706 64.0611497,68.7493121 L64.0611497,74.99925 C64.0611497,75.8634914 64.7593927,76.5617345 65.6236342,76.5617345 L70.3110876,76.5617345 L70.3110876,81.249188 C70.3110876,82.1134294 71.0093307,82.8116724 71.8735721,82.8116724 L78.1235101,82.8116724 C78.9877515,82.8116724 79.6859945,82.1134294 79.6859945,81.249188 L79.6859945,76.5617345 L84.373448,76.5617345 C85.2376894,76.5617345 85.9359325,75.8634914 85.9359325,74.99925 L85.9359325,68.7493121 C85.9359325,67.8850706 85.2376894,67.1868276 84.373448,67.1868276 Z M82.8109635,73.4367655 L78.1235101,73.4367655 C77.2592686,73.4367655 76.5610256,74.1350086 76.5610256,74.99925 L76.5610256,79.6867035 L73.4360566,79.6867035 L73.4360566,74.99925 C73.4360566,74.1350086 72.7378135,73.4367655 71.8735721,73.4367655 L67.1861187,73.4367655 L67.1861187,70.3117965 L71.8735721,70.3117965 C72.7378135,70.3117965 73.4360566,69.6135535 73.4360566,68.7493121 L73.4360566,64.0618586 L76.5610256,64.0618586 L76.5610256,68.7493121 C76.5610256,69.6135535 77.2592686,70.3117965 78.1235101,70.3117965 L82.8109635,70.3117965 L82.8109635,73.4367655 Z" id="Shape"></path>
                <path d="M53.0701874,87.7098381 C52.3203377,87.2738781 51.3640079,87.5333613 50.9357443,88.2783325 C50.0980026,89.7250324 48.5418395,90.6234877 46.8732846,90.6234877 C44.288846,90.6234877 42.1858312,88.5204729 42.1858312,85.9360343 C42.1858312,83.9842679 43.3730337,82.270535 45.2124082,81.5701848 C45.9001871,81.3079017 46.3110223,80.5999087 46.2001127,79.8716838 L43.7315658,63.8234503 C43.6004278,62.9717623 42.8156999,62.3795539 41.9486549,62.5169632 C41.0955741,62.6481012 40.5110264,63.4467754 40.6421679,64.2998741 L42.9357166,79.2090118 C40.5766328,80.5950159 39.0623622,83.1605797 39.0623622,85.9368021 C39.0623622,90.2447951 42.5667917,93.7492246 46.8747846,93.7492246 C49.6543999,93.7492246 52.246517,92.2523109 53.6402531,89.8444419 C54.072731,89.095985 53.81673,88.1410481 53.0717588,87.7099988 L53.0701874,87.7098381 Z" id="Path"></path>
                <path d="M42.9345737,14.5450288 L40.6410251,29.4514879 C40.5098871,30.3045688 41.0944313,31.101168 41.9475121,31.233006 C42.8005929,31.3627475 43.5992814,30.7795998 43.730423,29.9265189 L46.1989699,13.8782854 C46.3098777,13.1500605 45.9004193,12.4441568 45.2112654,12.1811773 C43.3725337,11.4808449 42.1846883,9.76691553 42.1846883,7.81532776 C42.1846883,5.23088914 44.2877031,3.1278743 46.8721418,3.1278743 C49.4565804,3.1278743 51.5595952,5.23088914 51.5595952,7.81532776 C51.5595952,9.7670941 50.3723927,11.4808271 48.5330181,12.1811773 C47.8452393,12.4434604 47.434404,13.1514534 47.5453137,13.8782854 L50.0138606,29.9265189 C50.1324415,30.7000827 50.7978885,31.2518451 51.5561131,31.2518451 C51.6342373,31.2518451 51.7151508,31.2455671 51.7953607,31.2330113 C52.6484416,31.1018733 53.2329893,30.304592 53.1018478,29.4514933 L50.8082991,14.5450342 C53.1973825,13.1625122 54.6816535,10.6388229 54.6816535,7.81242243 C54.6816535,3.50442949 51.177224,0 46.8692311,0 C42.5612381,0 39.0568087,3.50442949 39.0568087,7.81242243 C39.0568087,10.6373944 40.5411689,13.1625479 42.9301631,14.5450342 L42.9345737,14.5450288 Z" id="Path"></path>
                <path d="M14.5402128,50.8137758 L29.4493505,53.1073245 C30.3010384,53.2398571 31.1011198,52.6539183 31.2322613,51.8008375 C31.3633993,50.9477567 30.7788551,50.1490682 29.9257743,50.0179266 L13.8775408,47.5493797 C13.1416374,47.433588 12.441305,47.8465375 12.1790398,48.5370842 C11.4787075,50.3743874 9.76477805,51.5636613 7.81319028,51.5636613 C5.22875166,51.5636613 3.12573682,49.4606464 3.12573682,46.8762078 C3.12573682,44.2917692 5.22875166,42.1887543 7.81319028,42.1887543 C9.76495662,42.1887543 11.4786896,43.3759568 12.1790398,45.2153314 C12.4413229,45.9045032 13.147923,46.3153562 13.8775408,46.2030359 L29.9257743,43.734489 C30.7788551,43.6033528 31.3634029,42.8060696 31.2322613,41.952971 C31.1011198,41.0998723 30.3150026,40.5125567 29.4493505,40.6464839 L14.5402128,42.9400326 C13.1542087,40.5809489 10.5886449,39.0666782 7.81242243,39.0666782 C3.50442949,39.0666782 0,42.5711077 0,46.8791006 C0,51.1870936 3.50442949,54.6915231 7.81242243,54.6915231 C10.5872163,54.6915231 13.1548694,53.1757703 14.5402128,50.8181687 L14.5402128,50.8137758 Z" id="Path"></path>
                <path d="M79.2074279,42.9352826 L64.2982902,40.641734 C63.4452094,40.510596 62.6465209,41.0951402 62.5153793,41.948221 C62.3842413,42.8013018 62.9687855,43.5979011 63.8218663,43.729739 L79.8700999,46.198286 C79.9510133,46.2108415 80.0312304,46.2171197 80.1093475,46.2171197 C80.7482876,46.2171197 81.3342282,45.8251057 81.5686009,45.2105761 C82.2689332,43.3732729 83.9828626,42.183999 85.9344504,42.183999 C87.6029695,42.183999 89.1592398,43.0824187 89.99691,44.5277258 C90.4265843,45.2761826 91.3815213,45.5307872 92.1313531,45.0983094 C92.8784171,44.6672244 93.1344146,43.7109124 92.6998475,42.9638663 C91.3075577,40.5546045 88.7141728,39.0576551 85.9343789,39.0576551 C83.1545851,39.0576551 80.591932,40.5734079 79.2065886,42.9310095 L79.2074279,42.9352826 Z" id="Path"></path>
                <path d="M45.3113358,39.0621068 C45.3113358,35.6155339 42.5079708,32.8121689 39.0613979,32.8121689 C35.614825,32.8121689 32.8114599,35.6155339 32.8114599,39.0621068 C32.8114599,42.5086797 35.614825,45.3120448 39.0613979,45.3120448 C42.5079708,45.3120448 45.3113358,42.5086797 45.3113358,39.0621068 Z M39.0613979,42.1870758 C37.33779,42.1870758 35.9364289,40.7857147 35.9364289,39.0621068 C35.9364289,37.3384989 37.33779,35.9371378 39.0613979,35.9371378 C40.7850058,35.9371378 42.1863669,37.3384989 42.1863669,39.0621068 C42.1863669,40.7857147 40.7850058,42.1870758 39.0613979,42.1870758 Z" id="Shape"></path>
                <path d="M32.8114599,54.6869517 C32.8114599,57.2713903 34.9144748,59.3744051 37.4989134,59.3744051 C40.083352,59.3744051 42.1863669,57.2713903 42.1863669,54.6869517 C42.1863669,52.1025131 40.083352,49.9994982 37.4989134,49.9994982 C34.9144748,49.9994982 32.8114599,52.1025131 32.8114599,54.6869517 Z M39.0613979,54.6869517 C39.0613979,55.5491038 38.3610656,56.2494362 37.4989134,56.2494362 C36.6367612,56.2494362 35.9364289,55.5491038 35.9364289,54.6869517 C35.9364289,53.8247995 36.6367612,53.1244672 37.4989134,53.1244672 C38.3610656,53.1244672 39.0613979,53.8247995 39.0613979,54.6869517 Z" id="Shape"></path>
                <path d="M62.4986652,35.9371378 C62.4986652,33.3526992 60.3956504,31.2496844 57.8112117,31.2496844 C55.2267731,31.2496844 53.1237583,33.3526992 53.1237583,35.9371378 C53.1237583,38.5215765 55.2267731,40.6245913 57.8112117,40.6245913 C60.3956504,40.6245913 62.4986652,38.5215765 62.4986652,35.9371378 Z M56.2487272,35.9371378 C56.2487272,35.0763785 56.9490596,34.3746534 57.8112117,34.3746534 C58.6733639,34.3746534 59.3736962,35.0763785 59.3736962,35.9371378 C59.3736962,36.7978971 58.6733639,37.4996223 57.8112117,37.4996223 C56.9490596,37.4996223 56.2487272,36.7978971 56.2487272,35.9371378 Z" id="Shape"></path>
                <path d="M53.1237583,46.8745292 C53.520665,46.8745292 53.9161611,46.924752 54.2970145,47.0231046 C55.1312741,47.2386381 55.9843549,46.7357146 56.1998527,45.8979729 C56.4153863,45.0623205 55.9110699,44.2106325 55.074721,43.9951346 C54.4385666,43.8326077 53.7828767,43.7496013 53.1229547,43.7496013 C48.8149618,43.7496013 45.3105323,47.2540308 45.3105323,51.5620238 C45.3105323,52.2211958 45.3935386,52.8775821 45.5560656,53.5137901 C45.7374209,54.218301 46.371486,54.6870463 47.0683363,54.6870463 C47.1980778,54.6870463 47.3278158,54.6717004 47.4589574,54.6389164 C48.2946098,54.4233829 48.7982298,53.571677 48.5840891,52.7360782 C48.4871311,52.3545284 48.4355137,51.9597109 48.4355137,51.562822 C48.4355137,48.9783834 50.5385286,46.8753685 53.1229672,46.8753685 L53.1237583,46.8745292 Z" id="Path"></path>
                <path d="M53.2148288,24.2586824 C52.9260459,25.0713171 53.3508489,25.9648618 54.1613908,26.2536626 C56.1004787,26.9442271 57.9392105,27.9131104 59.6315151,29.1302411 C60.1797775,29.5236479 60.9205737,29.5208623 61.4688183,29.1225684 L69.7312362,23.0629857 C70.3248375,22.6284185 70.5341033,21.8367121 70.232767,21.1642545 C69.4278107,19.3687366 69.801682,17.3173284 71.179329,15.9375207 C72.9496864,14.1657704 76.0369593,14.1657704 77.8072989,15.9375207 C78.6917723,16.8233869 79.1807496,18.0001788 79.1807496,19.2528449 C79.1807496,20.5056182 78.6931651,21.6810351 77.8072989,22.5669192 C76.4261698,23.9466555 74.3746544,24.3198303 72.5805651,23.5134812 C71.9088396,23.2135377 71.1164368,23.4214053 70.6804054,24.0150119 L64.6208227,32.2786799 C64.2211302,32.8255494 64.2176481,33.5663278 64.6131499,34.1159831 C65.8289593,35.8033235 66.7958068,37.6427338 67.4884785,39.5846788 C67.7165655,40.2236189 68.3178453,40.6240077 68.9602853,40.6240077 C69.1339729,40.6240077 69.3118533,40.5940134 69.4855301,40.5319336 C70.2981649,40.2410615 70.7215714,39.3489097 70.4320921,38.5348106 C69.7680273,36.6737577 68.8835539,34.894311 67.7946183,33.2314704 L72.5161786,26.7911772 C75.1675808,27.4803489 78.0504094,26.7381635 80.013247,24.7738758 C81.4885359,23.2985869 82.30251,21.3364099 82.30251,19.2507164 C82.30251,17.1650228 81.4884824,15.2021851 80.013247,13.7255927 C78.5400474,12.2503037 76.5772097,11.4363297 74.4900876,11.4363297 C72.4024297,11.4363297 70.4401278,12.2503573 68.9669281,13.7236284 C66.9698051,15.7207514 66.2339195,18.5548304 66.9448053,21.2221254 L60.5086192,25.9424356 C58.8442965,24.8535715 57.0649034,23.9690624 55.205279,23.3063904 C54.3863764,23.0141254 53.4977067,23.438923 53.208156,24.2529524 L53.2148288,24.2586824 Z" id="Path"></path>
                <path d="M40.5328119,69.4903761 C40.8215947,68.6763485 40.3967918,67.7828038 39.5862498,67.4932531 C37.6471619,66.8040814 35.8062874,65.8351981 34.1161256,64.6179245 C33.5678631,64.2196249 32.8270669,64.2245177 32.2788224,64.6255975 L24.0164044,70.6851802 C23.4228032,71.1211401 23.2135374,71.9114537 23.5148737,72.5839113 C24.31983,74.3806792 23.9459587,76.432266 22.5683116,77.8118951 C20.7979542,79.5822525 17.7106813,79.5822525 15.9403417,77.8118951 C15.0558684,76.9274218 14.5668911,75.7506656 14.5668911,74.4978209 C14.5668911,73.2449762 15.0544755,72.0683807 15.9403417,71.1837466 C17.320078,69.8054032 19.3701291,69.4322283 21.1683255,70.2371846 C21.8386582,70.5343424 22.6324539,70.3278641 23.0670567,69.7356539 L29.1266394,61.4732359 C29.5263318,60.9263663 29.529814,60.185588 29.1343122,59.6359327 C27.91711,57.9450924 26.949691,56.1050749 26.2589836,54.1658085 C25.9667186,53.3531737 25.0780489,52.9332671 24.2618605,53.2192464 C23.4492258,53.5101185 23.0258192,54.4036632 23.3152985,55.2163695 C23.9793633,57.0759939 24.8624439,58.8554405 25.9527723,60.5197097 L21.232462,66.9558958 C18.5608814,66.2416171 15.7296595,66.9810062 13.7325365,68.9780185 C12.2572476,70.4512182 11.4432735,72.4140559 11.4432735,74.501178 C11.4432735,76.5888358 12.2573012,78.5511378 13.7325365,80.0243374 C15.2057362,81.4996264 17.1685738,82.3136004 19.255696,82.3136004 C21.3433538,82.3136004 23.3056558,81.4995728 24.7788554,80.0243374 C26.7759784,78.0293572 27.511864,75.1931354 26.8009782,72.5244119 L33.2371643,67.8041016 C34.8993978,68.8929658 36.6794515,69.7774749 38.5405045,70.4415754 C39.3545321,70.7275726 40.246684,70.3055554 40.5376275,69.4950134 L40.5328119,69.4903761 Z" id="Path"></path>
                <path d="M21.2258607,26.7943715 L25.947421,33.2346647 C24.8599675,34.8968982 23.9740477,36.6769519 23.3099471,38.5380049 C23.0211643,39.3520325 23.4459672,40.2441844 24.2565092,40.5351279 C24.4301967,40.5979058 24.6080771,40.627202 24.781754,40.627202 C25.424194,40.627202 26.0254559,40.2289024 26.2535608,39.587873 C26.9441253,37.645928 27.9130086,35.806482 29.1288894,34.1191773 C29.5243854,33.5695221 29.5209033,32.8287258 29.1212164,32.2818741 L23.0616337,24.0182062 C22.6256738,23.4246049 21.8318781,23.2132499 21.161474,23.5166754 C19.3709561,24.3216317 17.3159765,23.9491533 15.9347402,22.5701134 C15.0502668,21.6842472 14.5612895,20.5074553 14.5612895,19.2560392 C14.5612895,18.0046587 15.048874,16.826599 15.9347402,15.9407149 C17.7050976,14.1689647 20.7923705,14.1689647 22.5627101,15.9407149 C23.9424464,17.3190584 24.3142284,19.3705023 23.5092721,21.1660202 C23.2093287,21.8377457 23.417198,22.6301485 24.0108029,23.0647514 L32.2732208,29.1243341 C32.8214832,29.5240265 33.5622795,29.5261158 34.110524,29.132007 C35.8027572,27.9148048 37.6413818,26.9459573 39.5806483,26.2554284 C40.3932831,25.9666456 40.8166896,25.0724045 40.5272103,24.2604482 C40.2349453,23.4464206 39.3441863,23.0230141 38.5300873,23.3138862 C36.6726057,23.9765403 34.8924448,24.8610316 33.2267471,25.9499315 L26.790561,21.2296212 C27.5013575,18.5621477 26.7654505,15.7280687 24.7684382,13.7311242 C23.2952385,12.2558353 21.3324009,11.4418612 19.2452787,11.4418612 C17.1576209,11.4418612 15.195319,12.2558889 13.7221193,13.7311242 C12.2468304,15.2064131 11.4328563,17.1685901 11.4328563,19.2562479 C11.4328563,21.3439058 12.2468839,23.3047792 13.7221193,24.7794074 C15.6842427,26.7415307 18.5720711,27.4858091 21.2191877,26.7967088 L21.2258607,26.7943715 Z" id="Path"></path>
            </g>
        </g>
    </g>
</svg>