<?xml version="1.0" encoding="UTF-8"?>
<svg width="200px" height="200px" viewBox="0 0 200 200" version="1.1" xmlns="http://www.w3.org/2000/svg" xmlns:xlink="http://www.w3.org/1999/xlink">
    <title>Group 15</title>
    <g id="Page-1" stroke="none" stroke-width="1" fill="none" fill-rule="evenodd">
        <g id="Group-15">
            <circle id="Oval" fill="#F7ECD8" cx="100" cy="100" r="100"></circle>
            <g id="Group-8" transform="translate(50.000000, 50.000000)" fill="#C29F60" fill-rule="nonzero">
                <path d="M81.8728275,31.444215 C71.6536428,31.444215 63.3640854,39.7337724 63.3640854,49.9529572 C63.3640854,60.1721419 71.6536428,68.4616993 81.8728275,68.4616993 C92.0920123,68.4616993 100.38157,60.1721419 100.38157,49.9529572 C100.38157,39.7337724 92.0920123,31.444215 81.8728275,31.444215 L81.8728275,31.444215 Z M92.9971513,57.5290315 C92.7113007,58.6247811 92.0204898,60.2207093 90.3769089,61.1021091 C89.6622934,61.4832432 88.8761989,61.6738102 88.018669,61.6738102 C86.6608734,61.6738102 85.1601634,61.1973926 83.4927563,60.2445574 C81.8729364,59.3155485 81.0153847,59.3155485 80.7771215,59.4346366 C80.4912709,59.6013817 80.2768776,60.3160146 80.2768776,60.5780388 L75.9890103,60.3160146 C75.9890103,60.1492695 76.0604718,59.2917222 76.4654279,58.2912344 C76.6083532,57.9101003 76.8227356,57.5289662 77.0847816,57.1478321 C77.7041354,55.4803814 76.846562,54.1941519 75.2505684,52.0739574 C74.9408915,51.6451707 74.6074101,51.2164058 74.2977332,50.7638145 L71.3915314,50.7638145 C71.0342237,50.7638145 70.7483731,50.4779639 70.7483731,50.1206562 L70.7483731,47.8338517 C70.7483731,47.4765439 71.0342237,47.1906934 71.3915314,47.1906934 L72.6540435,47.1906934 L72.582582,46.8333856 C72.2729051,44.6894955 73.4163073,40.7589795 76.7750568,39.1630078 C82.3729364,36.5188084 86.5891505,39.9252759 88.4710817,42.6646499 C88.7807586,43.1172412 88.614007,43.736595 88.1376003,43.9986192 L85.9937102,45.1658478 C85.5887498,45.4040675 85.0647013,45.2611313 84.7788508,44.8799972 C83.8736682,43.6174851 81.7535173,41.5212259 78.6092701,43.0219795 C77.0847337,43.7604213 76.7750568,45.7853104 76.8227095,46.2378799 C76.8703513,46.5475568 76.9894546,46.8572337 77.1323864,47.1907151 L81.7297346,47.1907151 C82.0870423,47.1907151 82.3728929,47.4765657 82.3728929,47.8338735 L82.3728929,50.1206779 C82.3728929,50.4779857 82.0870423,50.7638363 81.7297346,50.7638363 L79.5620399,50.7638363 C80.3957653,51.9786957 81.2056861,53.4317748 81.443884,55.0754428 C82.6825698,55.1707263 84.0641264,55.6233176 85.5649235,56.4808692 C87.0657206,57.3384209 87.9945988,57.4337044 88.3042975,57.2669637 C88.4710425,57.1716802 88.6139743,56.9572868 88.7092579,56.7190889 C88.8521831,56.3379549 89.2333063,56.0997352 89.6382667,56.1235615 L92.1156383,56.3141285 C92.734992,56.3855901 93.1399307,56.9572868 92.9970163,57.528988 L92.9971513,57.5290315 Z" id="Shape"></path>
                <path d="M50.0709998,37.0174843 C60.2901846,37.0174843 68.579742,28.7279269 68.579742,18.5087421 C68.579742,8.28955736 60.2901846,0 50.0709998,0 C39.8518151,0 31.5622577,8.28955736 31.5622577,18.5087421 C31.5622577,28.7279269 39.8280759,37.0174843 50.0709998,37.0174843 Z M44.4968595,23.2489611 L46.8550994,22.5105193 C47.2362334,22.3914138 47.6888247,22.5343413 47.9032181,22.8678271 C48.403462,23.6539215 49.1895347,23.9159458 49.213361,23.9159458 C50.2138489,24.2017963 50.9284644,23.8921238 51.3334248,23.5824643 C51.5478138,23.4157193 51.7383852,23.1775039 51.8574733,22.8678488 C52.4053481,21.4147697 50.7378974,20.5810444 50.5473303,20.4856519 L50.4520468,20.4380102 L47.3792349,18.8181903 C44.8066888,17.4603947 44.2587269,14.9591533 44.3301623,13.6728802 C44.4492678,11.4575112 45.5450217,9.7186686 47.4269312,8.81352961 C47.5222147,8.76588785 47.6174982,8.74206806 47.7127817,8.69442412 L47.7127817,7.31280218 C47.7127817,6.95549443 47.9986323,6.66964387 48.35594,6.66964387 L51.3573165,6.66964387 C51.7146242,6.66964387 52.0004748,6.95549443 52.0004748,7.31280218 L52.0004748,8.55148795 C52.3101517,8.64677147 52.6198286,8.76587696 52.9056573,8.9087957 C54.2158003,9.52814947 55.0257211,10.433332 55.5021605,11.1002078 C55.8356419,11.6004517 55.621266,12.2674363 55.0495692,12.4818297 L52.4770231,13.5061221 C52.2388034,13.6014056 52.0006055,13.5299441 51.8338647,13.339377 C51.667124,13.14881 51.4289043,12.9344166 51.0477703,12.7438496 C50.4284165,12.457999 49.7614536,12.4103682 49.2612097,12.672388 C48.9515328,12.8153133 48.6180514,13.0535221 48.5703987,13.9110738 C48.5703987,14.0539991 48.6418603,14.6495156 49.3326669,15.0306497 L52.3580003,16.6266432 C54.2636707,17.5318258 57.3841788,20.2951132 55.8119463,24.3921957 C55.4069859,25.4641407 54.7161967,26.3693233 53.8109923,27.036395 C53.2392912,27.4651818 52.5961329,27.7748369 51.9529746,27.9892302 L51.9529746,29.6805073 C51.9529746,30.037815 51.667124,30.3236656 51.3098163,30.3236656 L48.3084398,30.3236656 C47.9511321,30.3236656 47.6652815,30.037815 47.6652815,29.6805073 L47.6652815,27.9177513 C46.5218793,27.4889645 44.8305151,26.4408676 43.8776799,24.5112837 C43.6871129,24.0110398 43.9729634,23.4155342 44.4970337,23.2487717 L44.4968595,23.2489611 Z" id="Shape"></path>
                <path d="M18.5087421,31.492129 C8.28955736,31.492129 2.27373675e-13,39.7816864 2.27373675e-13,50.0008712 C2.27373675e-13,60.2200559 8.28955736,68.5096133 18.5087421,68.5096133 C28.7279269,68.5096133 37.0174843,60.2200559 37.0174843,50.0008712 C37.0174843,39.7816864 28.7279269,31.492129 18.5087421,31.492129 L18.5087421,31.492129 Z M25.5834618,60.3624912 C24.0827518,60.6483417 22.67726,60.7674516 21.3672477,60.7674516 C18.127608,60.7674516 15.5073657,59.9337262 13.4825637,58.2663409 C12.0771372,57.0991123 11.2194984,55.7175339 10.6717543,54.3835646 L8.40868899,54.3835646 C8.05138123,54.3835646 7.76553067,54.0977141 7.76553067,53.7404063 L7.76553067,51.4536018 C7.76553067,51.0962941 8.05138123,50.8104435 8.40868899,50.8104435 L9.79031092,50.8104435 C9.74266916,50.3101996 9.74266916,49.9767182 9.76648895,49.9290655 C9.76648895,49.6670413 9.79031092,49.405017 9.81413071,49.1667973 L8.43250878,49.1667973 C8.07520102,49.1667973 7.78935046,48.8809468 7.78935046,48.523639 L7.78935046,46.2368345 C7.78935046,45.8795268 8.07520102,45.5936762 8.43250878,45.5936762 L10.5287462,45.5936762 C11.1242737,43.9976827 12.1009352,42.6637352 13.434948,41.6155076 C17.3654205,38.5426957 23.2490417,39.1618753 25.5835424,39.5669228 C26.1075909,39.6622063 26.4649204,40.1862766 26.3219842,40.710325 L26.0361337,41.8537273 L25.7502831,43.0447822 L25.5358941,43.9023338 L25.7502831,43.0447822 C25.6311776,43.5211998 25.178582,43.8070503 24.7021644,43.7355931 C22.5344698,43.3782854 18.4134521,43.163892 16.0789514,44.9742789 C15.8407317,45.1648459 15.6501646,45.355413 15.4595976,45.5698063 L18.9135435,45.5698063 C19.2708513,45.5698063 19.5567019,45.8556569 19.5567019,46.2129647 L19.5567019,48.4997691 C19.5567019,48.8570769 19.2708513,49.1429275 18.9135435,49.1429275 L14.1256283,49.1429275 C14.1018064,49.4049517 14.1018064,49.6908023 14.1018064,49.9766528 C14.1018064,50.0004748 14.1018064,50.3101342 14.1732679,50.7865736 L18.9374439,50.7865736 C19.2947517,50.7865736 19.5806022,51.0724242 19.5806022,51.4297319 L19.5806022,53.7165364 C19.5806022,54.0738442 19.2947517,54.3596947 18.9374439,54.3596947 L15.650108,54.3596947 C15.8406751,54.5740838 16.0312421,54.7646551 16.2694618,54.9552222 C18.0322178,56.4083013 20.9622024,56.8132399 24.749804,56.1224508 C25.2500479,56.0271672 25.7264655,56.3368398 25.821749,56.8370663 L26.3457975,59.2192632 C26.464903,59.767138 26.1075778,60.2673819 25.5835293,60.3626654 L25.5834618,60.3624912 Z" id="Shape"></path>
                <path d="M50.1428708,62.9825157 C39.9236861,62.9825157 31.6341287,71.2720731 31.6341287,81.4912579 C31.6341287,91.7104426 39.9236861,100 50.1428708,100 C60.3620556,100 68.651613,91.7104426 68.651613,81.4912579 C68.651613,71.2720731 60.3857948,62.9825157 50.1428708,62.9825157 Z M58.408689,71.2720731 L52.4296753,83.182622 L56.6221502,83.182622 C56.979458,83.182622 57.2653085,83.4684726 57.2653085,83.8257803 L57.2653085,86.1125848 C57.2653085,86.4698926 56.979458,86.7557431 56.6221502,86.7557431 L52.2868045,86.7557431 L52.2868045,88.2564531 L56.6221502,88.2564531 C56.979458,88.2564531 57.2653085,88.5423037 57.2653085,88.8996115 L57.2653085,91.1864159 C57.2653085,91.5437237 56.979458,91.8295743 56.6221502,91.8295743 L52.2868045,91.8295743 L52.2868045,93.2111962 C52.2868045,93.7352447 51.8580178,94.1402051 51.3577956,94.1402051 L48.9281203,94.1402051 C48.4040718,94.1402051 47.9991114,93.7114183 47.9991114,93.2111962 L47.9991114,91.8295743 L43.6637657,91.8295743 C43.3064579,91.8295743 43.0206074,91.5437237 43.0206074,91.1864159 L43.0206074,88.8996115 C43.0206074,88.5423037 43.3064579,88.2564531 43.6637657,88.2564531 L47.9991114,88.2564531 L47.9991114,86.7557431 L43.6637657,86.7557431 C43.3064579,86.7557431 43.0206074,86.4698926 43.0206074,86.1125848 L43.0206074,83.8257803 C43.0206074,83.4684726 43.3064579,83.182622 43.6637657,83.182622 L47.8562406,83.182622 L41.8772269,71.2720731 C41.6390072,70.8194818 41.8295852,70.2477807 42.2821873,70.009561 L44.449882,68.9138114 C44.9024732,68.6755917 45.4741744,68.8661697 45.712394,69.3187718 L50.1431322,78.1325519 L54.5738703,69.3187718 C54.81209,68.8661806 55.3599648,68.6756135 55.8363824,68.9138114 L58.004077,70.009561 C58.4566683,70.2477807 58.6472354,70.8194818 58.4090375,71.2720731 L58.408689,71.2720731 Z" id="Shape"></path>
            </g>
        </g>
    </g>
</svg>