<?xml version="1.0" encoding="UTF-8"?>
<svg width="200px" height="200px" viewBox="0 0 200 200" version="1.1" xmlns="http://www.w3.org/2000/svg" xmlns:xlink="http://www.w3.org/1999/xlink">
    <title>Group 17 2</title>
    <g id="Page-1" stroke="none" stroke-width="1" fill="none" fill-rule="evenodd">
        <g id="Group-17">
            <g id="Group-11" fill="#F7ECD8">
                <circle id="Oval" cx="100" cy="100" r="100"></circle>
            </g>
            <g id="Shape-3" transform="translate(50.000000, 50.000000)" fill="#C3A062" fill-rule="nonzero">
                <path d="M50.1041283,15.3210639 C31.0567558,15.3210639 15.3219697,31.0560348 15.3219697,50.1032226 C15.3219697,69.1504103 31.0569406,84.8853812 50.1041283,84.8853812 C69.1513161,84.8853812 84.886287,69.1504103 84.886287,50.1032226 C84.886287,31.0560348 69.1513161,15.3210639 50.1041283,15.3210639 Z M48.0339466,33.540105 C44.3072868,33.332865 40.5806269,32.711866 37.2684101,31.8836454 C39.9597018,25.4656938 43.6863616,21.1181089 48.0339466,20.0825559 L48.0339466,33.540105 Z M48.0339466,37.6812079 L48.0339466,48.0330408 L33.9554538,48.0330408 C34.1626938,43.685271 34.7836929,39.5441681 35.8184141,35.8182477 C39.5450739,36.8530058 43.6861768,37.4739864 48.0339466,37.6812079 L48.0339466,37.6812079 Z M52.1743101,37.8884479 C56.5220799,37.8884479 60.6631828,37.2674488 64.5963247,36.4392283 C65.6318038,39.9586666 66.2527844,43.892548 66.4592849,48.2403178 L52.1743101,48.2403178 L52.1743101,37.8884479 Z M52.1743101,33.747345 L52.1743101,20.0825559 C56.7293014,21.1180349 60.6631828,25.8793974 63.1470681,32.297349 C59.6276298,33.126309 55.9009699,33.5400681 52.1743101,33.747345 L52.1743101,33.747345 Z M33.1269375,30.6416103 C31.4704779,30.0206112 30.0212028,29.1923907 28.5719462,28.3642071 C31.2632379,25.6729154 34.5760093,23.3955121 38.0956325,21.9462555 C36.2326722,24.2236587 34.5761941,27.122172 33.1269375,30.6416103 Z M31.8849394,34.3682702 C30.6429413,38.5086336 30.0219792,43.063625 29.8147576,48.0330593 L19.6701462,48.0330593 C20.0839053,41.8215899 22.3614379,36.2319698 25.8816157,31.4697569 C27.7438365,32.712476 29.6075361,33.5399387 31.8851242,34.3682702 L31.8849394,34.3682702 Z M29.8140182,52.1734228 C30.0212582,56.9356356 30.6422573,61.2832206 31.8842,65.4237689 C29.6067967,66.252008 27.5364301,67.2867291 25.6727305,68.3222821 C22.3597743,63.7672908 20.0831104,58.1776707 19.6686674,52.1736076 L29.8140182,52.1734228 Z M33.9551211,52.1734043 L48.0336139,52.1734043 L48.0336139,62.3180342 C43.6858441,62.5252742 39.5447412,62.9390332 35.8188207,63.9744938 C34.7833417,60.4550555 33.9551211,56.5211741 33.9551211,52.1734043 L33.9551211,52.1734043 Z M48.0336139,66.4591371 L48.0336139,80.1239262 C43.6858441,79.0884472 39.7519627,74.5343062 37.0608558,68.1156152 C40.5802942,67.2873761 44.306954,66.6663955 48.0336139,66.4591371 L48.0336139,66.4591371 Z M52.1739773,80.1231868 L52.1739773,66.4583976 C55.9006372,66.6656376 59.627297,67.0793967 63.1467354,67.9076173 C60.4554437,74.5335298 56.5215623,79.0883363 52.1739773,80.1231868 L52.1739773,80.1231868 Z M52.1739773,62.3180342 L52.1739773,52.1734228 L66.2524701,52.1734228 C66.0452301,56.5211926 65.4242311,60.455074 64.3895099,64.1817338 C60.66285,63.1462548 56.5217472,62.5252742 52.1739773,62.3180342 Z M70.393573,52.1734228 L80.5381844,52.1734228 C80.1244253,58.1774859 78.0535596,63.7672908 74.5341213,68.3220973 C72.6711611,67.2866182 70.6002399,66.2519156 68.3226518,65.4235841 C69.5653709,61.2832206 70.393573,56.9354508 70.393573,52.1732379 L70.393573,52.1734228 Z M70.393573,48.0330593 C70.186333,43.478068 69.5653339,39.130483 68.5306128,35.1966016 C70.808016,34.3683626 73.0856041,33.540142 74.9485643,32.5053099 C78.0542991,37.0603013 80.1244808,42.4434392 80.5381844,48.2402808 L70.393573,48.2402808 L70.393573,48.0330593 Z M72.2565332,29.1927234 C70.6000736,30.0209625 68.943577,30.641943 67.2878383,31.2629051 C65.8386186,27.5362453 64.1821035,24.4305105 61.9047003,21.9466252 C65.8385817,23.6030848 69.35802,26.0869887 72.2565332,29.1927234 Z M28.157725,71.4282017 C29.6069446,70.5999627 31.2634597,69.9789821 32.9199378,69.35802 C34.3691575,72.8774583 36.0256725,75.9831931 38.0958543,78.2605963 C34.368455,76.6041367 31.0562382,74.3267149 28.157725,71.4282017 Z M61.9047003,78.2605963 C63.974882,75.7759715 65.6313601,72.8774583 67.0806167,69.35802 C68.7370764,69.9790191 70.393573,70.6000181 71.8428296,71.4282017 C69.1509833,74.3267149 65.8387665,76.6041182 61.9047003,78.2605963 L61.9047003,78.2605963 Z M50.1036108,12.4229389 C53.6230491,12.4229389 56.3150802,9.5244257 56.3150802,6.21146946 C56.3150802,2.69203112 53.416567,0 50.1036108,0 C46.7906545,0 43.8921413,2.89851322 43.8921413,6.21146946 C43.8921413,9.73164722 46.5839876,12.4229389 50.1036108,12.4229389 Z M50.1036108,4.14128773 C51.3456089,4.14128773 52.1737925,5.17676679 52.1737925,6.21146946 C52.1737925,7.24694852 51.1383134,8.28165119 50.1036108,8.28165119 C49.0681317,8.28165119 48.033429,7.24617213 48.033429,6.21146946 C48.033429,5.17676679 48.8616681,4.14128773 50.1036108,4.14128773 Z M50.1036108,87.5770611 C46.5841724,87.5770611 43.8921413,90.4755743 43.8921413,93.7885305 C43.8921413,97.3079689 46.7906545,100 50.1036108,100 C53.416567,100 56.3150802,97.1014868 56.3150802,93.7885305 C56.3150802,90.4755743 53.6232339,87.5770611 50.1036108,87.5770611 Z M50.1036108,96.0659338 C48.8616126,96.0659338 48.033429,95.0304547 48.033429,93.9957521 C48.033429,92.960273 49.0689081,91.9255703 50.1036108,91.9255703 C51.1390898,91.9255703 52.1737925,92.9610494 52.1737925,93.9957521 C52.1737925,95.0304547 51.3455534,96.0659338 50.1036108,96.0659338 Z M93.9953823,43.8926959 C90.475944,43.8926959 87.7839129,46.7912091 87.7839129,50.1041653 C87.7839129,53.4171216 90.6824261,56.3156348 93.9953823,56.3156348 C97.5148207,56.3156348 100.206852,53.4171216 100.206852,50.1041653 C100.20613,46.7912091 97.5150055,43.8926959 93.9953823,43.8926959 L93.9953823,43.8926959 Z M93.9953823,52.174347 C92.7533842,52.174347 91.9252006,51.138868 91.9252006,50.1041653 C91.9252006,49.0686863 92.9606797,48.0339836 93.9953823,48.0339836 C95.0308614,48.0339836 96.0655641,49.0694626 96.0655641,50.1041653 C96.0655641,51.1396444 95.237325,52.174347 93.9953823,52.174347 Z M12.4229389,50.1041653 C12.4229389,46.584727 9.5244257,43.8926959 6.21146946,43.8926959 C2.69203112,43.8926959 0,46.7912091 0,50.1041653 C0,53.4171216 2.89851322,56.3156348 6.21146946,56.3156348 C9.73164722,56.3156348 12.4229389,53.6237885 12.4229389,50.1041653 Z M4.14128773,50.1041653 C4.14128773,48.8621672 5.17676679,48.0339836 6.21146946,48.0339836 C7.24694852,48.0339836 8.28165119,49.0694626 8.28165119,50.1041653 C8.28165119,51.1396444 7.24617213,52.174347 6.21146946,52.174347 C5.17676679,52.174347 4.14128773,51.346108 4.14128773,50.1041653 Z M61.6974788,7.45461368 C62.1112378,6.41913462 63.1466984,5.79815405 64.3887705,6.21261556 C78.2600417,10.7676069 89.4402061,21.7403649 93.787976,35.8188577 C94.201735,36.8543368 93.580736,38.096261 92.5459779,38.5101494 L91.9249788,38.5101494 C91.0967397,38.5101494 90.2685192,37.8891504 89.8547971,37.0609298 C85.7144336,24.4316936 75.5690828,14.2868974 62.9400315,10.1461642 C61.9052733,9.73240512 61.4915328,8.69694455 61.6980333,7.45487248 L61.6974788,7.45461368 Z M6.00461766,35.8186359 C10.5588696,21.7401431 21.7388491,10.7672002 35.6108598,6.21239373 C36.6463389,5.79863467 37.8882631,6.41963373 38.3021515,7.45439186 C38.7159106,8.48987092 38.0949115,9.7317951 37.0601534,10.1456836 C24.2236957,14.286047 14.286121,24.4313978 10.1453878,37.0604492 C9.9381478,37.8886882 9.10990874,38.5096688 8.07520607,38.5096688 L7.454207,38.5096688 C6.21148795,38.0959097 5.59050737,36.8539301 6.00498737,35.8183771 L6.00461766,35.8186359 Z M38.3023364,92.753717 C38.0950964,93.581956 37.2668573,94.2029366 36.2321546,94.2029366 L35.6111556,94.2029366 C21.7391449,89.4414632 10.5597199,78.4687051 6.00491342,64.3896578 C5.59115436,63.3541787 6.21215342,62.1122545 7.24691155,61.6983661 C8.28239061,61.284607 9.52431479,61.9056061 9.93820325,62.9403642 C14.0785667,75.7768219 24.2239175,85.7143966 36.8529689,89.8551298 C38.094967,90.4754079 38.5094285,91.71809 38.3021885,92.7529036 L38.3023364,92.753717 Z M93.7881608,64.3896948 C89.2331695,78.260966 78.2604114,89.4411304 64.3889553,93.9959369 C64.1817153,93.9959369 63.9751963,94.2031769 63.7679563,94.2031769 C62.9397172,94.2031769 62.1114966,93.5821778 61.6977745,92.7539573 C61.2840155,91.7184782 61.9050145,90.476554 62.9397727,90.0626656 C75.5690088,85.9223021 85.7138051,75.7769513 89.8545383,63.1479 C90.2682973,62.1124209 91.3037579,61.4914403 92.54583,61.9059018 C93.5805881,62.1124209 94.2015687,63.3544005 93.7878281,64.389972 L93.7881608,64.3896948 Z" id="Shape"></path>
            </g>
        </g>
    </g>
</svg>