<?xml version="1.0" encoding="UTF-8"?>
<svg width="200px" height="200px" viewBox="0 0 200 200" version="1.1" xmlns="http://www.w3.org/2000/svg" xmlns:xlink="http://www.w3.org/1999/xlink">
    <title>Group 2</title>
    <g id="Page-1" stroke="none" stroke-width="1" fill="none" fill-rule="evenodd">
        <g id="Group-2">
            <circle id="Oval" fill="#F7ECD8" cx="100" cy="100" r="100"></circle>
            <g id="Group" transform="translate(30.000000, 50.000000)" fill="#C29F60" fill-rule="nonzero">
                <path d="M106.086538,46.2291074 C116.222521,35.3906001 115.27039,25.3951778 113.661194,18.8195062 C111.459496,9.77621474 101.385566,0 88.9381414,0 C79.4265934,0 73.1797333,5.20074321 70.2589169,8.33937277 C67.3381006,5.19962765 61.0915194,0 51.5796925,0 C39.1484437,0 29.0581986,9.77649363 26.8566399,18.8195062 C25.2639263,25.3940622 24.2954245,35.3894846 34.4312959,46.2291074 C43.0049364,55.4129595 68.4001142,80.0110693 68.6511153,80.2592815 C68.7916508,80.399817 68.963779,80.4782549 69.1348224,80.5719452 C69.2132602,80.6187904 69.2906076,80.6972282 69.3842979,80.7277304 C69.6653634,80.8366705 69.9464289,80.8998586 70.2427497,80.8998586 C70.5390704,80.8998586 70.8201359,80.837761 71.1012014,80.7277304 C71.1948917,80.6961378 71.2569866,80.6187904 71.350677,80.5719452 C71.5228052,80.4782549 71.6938513,80.399817 71.834384,80.2592815 C72.1198002,80.0098059 97.5140297,55.4118439 106.08767,46.2291074 L106.086538,46.2291074 Z M70.2742559,75.4178302 C64.5734627,69.8736918 45.067329,50.8667714 37.8030777,43.1055379 C29.2762907,33.9849939 29.8689322,25.9102878 31.3222287,19.8976955 C32.8212632,13.7130279 40.3022121,4.57602931 51.5941948,4.57602931 C62.4176419,4.57602931 68.1337741,12.8534885 68.3680418,13.1965233 C69.0238799,14.1650251 70.2734192,14.4460906 71.2888582,13.9307853 C71.367296,13.8991926 71.4446434,13.8839401 71.5230813,13.8370949 L71.5383329,13.8370949 C71.7257136,13.7118119 71.8509967,13.5560294 71.9915294,13.3838985 C72.0536271,13.3218008 72.1320649,13.2749584 72.1789101,13.1965178 C72.1789101,13.1965178 72.1789101,13.1812658 72.1941621,13.1812658 C72.5068258,12.7280693 78.2067544,4.57602931 88.9526702,4.57602931 C100.244374,4.57602931 107.725323,13.7131093 109.224636,19.8977769 C110.69316,25.9103693 111.270546,33.9850753 102.743787,43.1056193 C95.4806515,50.8676895 75.9747967,69.8746099 70.272609,75.4178302 L70.2742559,75.4178302 Z" id="Shape"></path>
                <path d="M19.9373757,48.4936953 C19.4536687,43.8245167 18.4688518,34.093761 18.250955,32.0009695 C17.9546342,29.1738602 17.3761603,26.9089934 15.4238457,24.3326064 C13.8147891,22.2082444 10.2381625,21.8334998 7.66177549,22.5361635 C4.61573745,23.3793599 2.60131402,25.6759086 2.27361811,28.6890376 C1.74308541,33.4530388 0.321387175,47.6808979 0.00872344656,56.0835787 C-0.303940282,64.3141843 7.86450072,74.4816819 12.237498,79.9470919 L13.3617599,81.3524471 C16.438197,85.2884236 19.1869381,91.7377579 20.530073,98.1728689 C20.7490464,99.2503051 21.7011885,100 22.7633694,100 C22.9191547,100 23.0760332,99.9845704 23.2318212,99.9529772 C24.4661331,99.6871614 25.262476,98.4844533 24.9966658,97.251229 C23.4976314,90.0664614 20.4831079,83.0855625 16.9381354,78.5569445 L15.7822753,77.1047635 C12.3463488,72.8254733 4.30315739,62.7985364 4.55248517,56.2861729 C4.8651489,48.0240527 6.28573157,33.9367542 6.80103687,29.2045465 C6.87947472,28.5487084 7.12895589,27.6270881 8.47220232,27.0965275 C9.92438325,26.5191413 11.4867258,26.8938971 11.7525081,27.1117792 C12.9399665,28.6892375 13.4084182,29.985742 13.6731408,32.4999365 C13.9073638,34.7484882 15.0479854,45.8997708 15.4695837,49.9916468 C14.7048111,50.6006313 14.0642284,51.3664915 13.6262872,52.303395 C11.5956324,56.4574636 14.7505491,62.4544381 15.4063872,63.6104377 C15.4532323,63.7041281 15.5153272,63.7825659 15.5785154,63.8762535 L23.293732,73.9968975 C24.0585045,74.9969696 25.4954302,75.1996112 26.5107297,74.433751 C27.5108018,73.6689785 27.7134434,72.2320529 26.9475832,71.2167533 L19.3260736,61.221331 C18.2018117,59.1754208 17.061179,55.707673 17.7486153,54.3023456 C18.061279,53.6781059 18.544986,53.3022735 19.2639927,53.1464855 C20.3109184,52.9275121 21.4352082,53.287021 21.8568064,53.6301925 C23.5595701,55.0518908 32.3358242,63.2354476 34.570292,65.7499211 C35.7577504,67.0931675 37.0999092,72.5902594 38.553122,82.1324853 L38.7720954,83.6010092 C39.7721675,90.1755652 40.8180055,96.3144948 42.6450426,98.9999279 C43.0818962,99.6557659 43.8009028,100 44.5351648,100 C44.9720183,100 45.4252147,99.874717 45.8163302,99.61 C46.8632559,98.8920811 47.1443214,97.4703828 46.4253147,96.4234014 C45.0352148,94.362236 43.848844,86.6307321 43.2855696,82.8983455 L43.0665962,81.4298216 C41.6296706,72.0117018 40.2244269,65.218217 37.9910747,62.7037436 C35.6019903,60.0019954 26.5903249,51.6145141 24.7786546,50.1004196 C23.5454304,49.0556692 21.7337322,48.4771953 19.9374008,48.4935383 L19.9373757,48.4936953 Z" id="Path"></path>
                <path d="M123.578527,78.5273738 C120.033555,83.0409317 117.03437,90.0380062 115.519997,97.2216583 C115.254181,98.4559702 116.050529,99.6739392 117.284841,99.9234065 C117.440627,99.9549991 117.597505,99.9702516 117.753293,99.9702516 C118.815474,99.9702516 119.767633,99.2359897 119.986589,98.1432981 C121.329836,91.7093028 124.078466,85.2588529 127.154903,81.3228764 L128.279165,79.9175211 C132.667222,74.4507167 140.820575,64.2843347 140.507939,56.054008 C140.195275,47.6513272 138.75835,33.4234681 138.243044,28.6444068 C137.915125,25.6298833 135.900814,23.3346175 132.854887,22.4915327 C130.293672,21.788869 126.702013,22.1636136 125.092817,24.2879756 C123.140586,26.8644463 122.5632,29.1292294 122.265708,31.9563387 C122.046734,34.0491024 121.047739,43.7787703 120.579287,48.4490645 C118.782844,48.4490645 116.971006,49.0264507 115.738033,50.0581211 C113.926335,51.5734986 104.914586,59.9598364 102.525613,62.6614451 C100.292317,65.175807 98.8869333,71.9694033 97.4500914,81.3875231 L97.231118,82.856047 C96.668987,86.5730947 95.4815286,94.319826 94.0913729,96.3811029 C93.3734539,97.4280286 93.6545194,98.8486392 94.7003574,99.5677016 C95.0903573,99.8335174 95.5435538,99.9577016 95.9815229,99.9577016 C96.7157848,99.9577016 97.4337038,99.5981843 97.871645,98.9576294 C99.6985985,96.2711366 100.745608,90.1332667 101.744592,83.5587107 L101.963566,82.0901868 C103.415747,72.5632999 104.758881,67.0496419 105.946396,65.7226827 C108.179692,63.2083208 116.956978,55.0247361 118.659881,53.6029542 C119.081479,53.2597799 120.205769,52.9002905 121.252695,53.1192471 C121.970614,53.2750324 122.455409,53.6497798 122.768072,54.2751073 C123.485991,55.7272882 122.268022,59.2100682 121.190614,61.1940926 L113.569104,71.189515 C112.804332,72.2048424 112.991718,73.625453 114.005958,74.4065127 C115.021285,75.1712852 116.441896,74.9838989 117.222956,73.9696592 L124.938172,63.8490151 C125.00027,63.7705773 125.063455,63.6768869 125.1103,63.5831966 C125.766139,62.4273364 128.921055,56.4302224 126.8904,52.2761539 C126.437204,51.3545057 125.812964,50.5733902 125.047104,49.9644057 C125.468702,45.8725296 126.609335,34.7213865 126.843547,32.4726954 C127.109363,29.9735888 127.577809,28.6619406 128.717354,27.1313916 C129.030018,26.865573 130.591161,26.4908088 132.044513,27.0692939 C133.38776,27.5998266 133.637227,28.5214748 133.715679,29.1773128 C134.230984,33.9097995 135.652654,47.981759 135.96423,56.2589392 C136.213706,62.7715816 128.170646,72.7985186 124.73444,77.0775299 L123.578527,78.5273738 Z" id="Path"></path>
            </g>
        </g>
    </g>
</svg>