<?xml version="1.0" encoding="UTF-8"?>
<svg width="200px" height="200px" viewBox="0 0 200 200" version="1.1" xmlns="http://www.w3.org/2000/svg" xmlns:xlink="http://www.w3.org/1999/xlink">
    <title>Group 20</title>
    <g id="Page-1" stroke="none" stroke-width="1" fill="none" fill-rule="evenodd">
        <g id="Group-20">
            <circle id="Oval" fill="#F7ECD8" cx="100" cy="100" r="100"></circle>
            <path d="M149.145252,127.1909 L82.8828664,109.866045 C82.836188,109.851953 82.790389,109.837862 82.7437106,109.829934 L51.554913,101.676159 C51.0062174,101.531721 50.4443095,101.861993 50.2998756,102.410684 C50.157198,102.95938 50.4857097,103.521288 51.0344007,103.663963 L53.2881876,104.253175 L53.2881876,110.627117 C53.2881876,111.19518 53.7479366,111.654929 54.3159997,111.654929 C54.8840629,111.654929 55.3438119,111.19518 55.3438119,110.627117 L55.3438119,104.792266 L57.1968769,105.276658 L57.1968769,111.865469 C57.1968769,112.433533 57.6566259,112.893282 58.2246891,112.893282 C58.7927522,112.893282 59.2525012,112.433533 59.2525012,111.865469 L59.2525012,105.813945 L63.7751362,106.996766 L63.7751362,112.718883 C63.7751362,113.286946 64.2348852,113.746695 64.8029483,113.746695 C65.3710115,113.746695 65.8307604,113.286946 65.8307604,112.718883 L65.8316411,107.533151 L67.6820457,108.016664 L67.6820457,112.623849 C67.6820457,112.652032 67.6882106,112.680216 67.6908528,112.70928 C64.1591437,115.305754 58.5612584,118.054418 50.9359773,120.929117 C50.4048907,121.129043 50.1371491,121.722647 50.3370929,122.253733 C50.4929828,122.665909 50.8831505,122.91868 51.2997226,122.91868 C51.4195018,122.91868 51.5427982,122.896661 51.6617093,122.852625 C64.0675592,118.175996 71.218233,113.806678 73.454411,109.525518 L76.3714981,110.288227 C75.3384101,111.424376 74.2137149,112.537617 73.0124964,113.608674 C72.8011214,113.79715 72.7817539,114.123008 72.971103,114.334406 C73.0732664,114.44802 73.2132992,114.507027 73.3550952,114.507027 C73.4766352,114.507027 73.5981708,114.464752 73.6968124,114.376681 C75.0654624,113.157763 76.3381539,111.883245 77.4909647,110.582528 L80.8096079,111.450935 C75.3350529,117.95948 66.9688884,123.565257 55.911329,128.122163 C55.3872994,128.338823 55.1371668,128.9386 55.352059,129.464388 C55.515874,129.861593 55.8981166,130.101151 56.3032576,130.101151 C56.4336043,130.101151 56.5657233,130.07649 56.6951862,130.023647 C67.3000087,125.653427 75.5252565,120.311898 81.2011532,114.121261 C81.9585858,119.233942 87.8824056,124.56758 93.921529,129.279382 C94.1100056,129.426462 94.3328252,129.496921 94.5530159,129.496921 C94.8586359,129.496921 95.1607161,129.361289 95.3632979,129.101475 C95.7120722,128.654059 95.6327981,128.007601 95.1853912,127.658849 C86.2451887,120.682687 82.5074031,115.82095 83.2726368,112.095565 L88.1307661,113.365573 C88.2091518,114.588031 88.5896358,115.865096 90.0569274,117.167617 L90.7394825,116.399632 C89.671154,115.451094 89.3038915,114.55978 89.1885202,113.642176 L93.8396711,114.858455 C96.2801218,118.830501 104.262993,123.22011 120.286906,129.428334 C120.409327,129.475894 120.5344,129.497911 120.657686,129.497911 C121.069861,129.497911 121.459152,129.247778 121.615919,128.840878 C121.821129,128.31155 121.557791,127.716183 121.028465,127.510986 C117.715233,126.226886 114.00022,124.739325 110.439426,123.154971 L110.439426,119.196904 L148.631216,129.181694 C148.718409,129.204592 148.806481,129.215162 148.891022,129.215162 C149.347231,129.215162 149.764705,128.909542 149.884473,128.447178 C150.024508,127.895844 149.695996,127.334815 149.145551,127.191261 L149.145252,127.1909 Z M69.733653,111.003975 L69.733653,108.554731 L71.3947107,108.988935 C70.9939889,109.648605 70.4399949,110.319706 69.733653,111.004043 L69.733653,111.003975 Z M105.089074,117.797059 L105.089074,120.621479 C101.931639,119.013271 99.1899652,117.367094 97.3713514,115.780034 L105.089074,117.797059 Z M108.37773,122.218234 C107.962916,122.025354 107.551598,121.831604 107.144698,121.636079 L107.144698,118.335022 L108.37773,118.657372 L108.37773,122.218234 Z M98.1356833,102.962933 C98.1973348,102.951484 98.2572233,102.93475 98.3144715,102.912731 C103.052878,101.584597 108.94139,100.359547 116.09026,99.2189114 C116.159837,99.2153884 116.226773,99.2030584 116.292828,99.1863247 C122.091604,98.2650906 128.71649,97.4002006 136.22543,96.580156 L136.231595,96.580156 C136.307339,96.580156 136.3822,96.5695873 136.45442,96.5546151 C140.412486,96.1230495 144.613606,95.7047187 149.069953,95.2969398 C149.089329,95.2960591 149.106943,95.2890133 149.125438,95.286371 C149.159786,95.2810866 149.195015,95.2749216 149.228483,95.2661142 C149.26107,95.2581877 149.292777,95.2484996 149.323601,95.23617 C149.356188,95.2247203 149.387014,95.2115085 149.416078,95.1974168 C149.446023,95.1833251 149.475088,95.166591 149.503271,95.1498569 C149.531454,95.1331227 149.558756,95.1155093 149.584297,95.0961327 C149.611599,95.0767565 149.63626,95.0547393 149.66004,95.0327202 C149.684702,95.010702 149.7076,94.9878027 149.729617,94.9631434 C149.751634,94.9384842 149.771892,94.9138226 149.791268,94.8882818 C149.811525,94.86098 149.830022,94.8345576 149.847635,94.8054927 C149.864369,94.7773093 149.880222,94.749126 149.894313,94.7200611 C149.908405,94.6901169 149.922497,94.6592911 149.933946,94.6284653 C149.945395,94.5958786 149.955964,94.5650528 149.96389,94.5315845 C149.971817,94.4989979 149.979743,94.4681721 149.984147,94.4347038 C149.989431,94.4003562 149.992954,94.3642455 149.994716,94.3281347 C149.995596,94.3087586 150,94.292024 150,94.2726497 L150,79.0306552 C150,78.5990895 149.7305,78.214218 149.326238,78.0653875 L138.226516,73.9963914 C137.912103,73.8801363 137.560691,73.9268146 137.285013,74.118813 C137.009335,74.3108113 136.845533,74.6252336 136.845533,74.9616748 L136.845533,79.587348 L132.999298,79.587348 C132.431235,79.587348 131.971486,80.047097 131.971486,80.6151602 L131.971486,86.9872978 L130.98419,86.9872978 L130.864411,75.0515458 C130.861769,74.7529829 130.728779,74.4702703 130.500666,74.2773837 L124.560071,69.2440668 C124.334605,69.0529478 124.03868,68.9683888 123.747151,69.0106638 C123.454744,69.0529388 123.195818,69.2193963 123.034632,69.4668729 L120.2287,73.7807258 C120.12037,73.9471833 120.062242,74.1400745 120.062242,74.3382371 L119.993545,96.548503 C118.993916,96.693823 118.016315,96.8409106 117.059773,96.9888618 L117.113497,78.8705896 C117.114378,78.5588144 116.973462,78.2628895 116.731264,78.0664855 C116.488188,77.8709631 116.169356,77.7961059 115.863736,77.8639173 L107.744232,79.6623743 C107.27569,79.7663009 106.940128,80.1820072 106.939248,80.6620031 L106.881121,98.7838828 C103.980944,99.3686981 101.352679,99.9755189 98.9809959,100.605225 L98.9809959,76.306687 C98.9809959,76.0979545 98.9175835,75.8953907 98.7995652,75.7245321 L95.7794398,71.33853 C95.5900839,71.0637312 95.2791745,70.8981711 94.946273,70.893752 C94.6124697,70.8823025 94.2980565,71.0487603 94.1025318,71.3191398 L90.9257071,75.705142 C90.7980006,75.8804062 90.7301847,76.0917722 90.7301847,76.306687 L90.7213776,89.9765027 L87.7903115,89.9765027 L87.8237798,84.7353056 C87.8246604,84.6049589 87.8017614,84.4816557 87.7577248,84.3671637 L87.7577248,84.3662831 L87.7577248,84.3654024 L87.7577248,84.3645217 L87.7577248,84.363641 L87.7577248,84.3627601 L87.7577248,84.3618795 C87.7110465,84.2429819 87.6441099,84.1355335 87.5604415,84.0421678 L87.5595606,84.0412871 L87.5577993,84.0395258 C87.5577993,84.0395258 87.5577993,84.0386449 87.5569186,84.0386449 L87.5560379,84.0377642 L87.555157,84.0368835 L87.5542764,84.0360026 C87.4380213,83.9109386 87.29269,83.815821 87.1280092,83.7603246 L87.1271285,83.7603246 L87.1262478,83.7603246 L87.1253669,83.7603246 L87.1244862,83.7603246 L87.1236056,83.7603246 C87.0267248,83.7277379 86.9236798,83.7110038 86.8171062,83.7101222 L86.8118218,83.7101222 L86.8030146,83.7101222 L81.8815292,83.7101222 L81.8780063,83.7101222 L81.8418955,83.7101222 L81.8410146,83.7101222 C81.7573462,83.7127645 81.676318,83.7259752 81.5988184,83.7471123 C81.5988184,83.7471123 81.5979377,83.7479932 81.5979377,83.7471123 L81.597057,83.7471123 L81.5961764,83.7471123 C81.4103423,83.7999571 81.2474021,83.9038815 81.1205771,84.0430372 L81.1196962,84.0439181 C81.1196962,84.0439181 81.1196962,84.0447988 81.1188155,84.0447988 L81.1179348,84.0456795 C81.0377882,84.1346328 80.9726148,84.2376778 80.9268158,84.3495408 L80.9268158,84.3504215 L80.9268158,84.3513022 L80.9268158,84.3521828 L80.9268158,84.3530635 C80.8792559,84.4746035 80.853715,84.6067135 80.8545966,84.7449921 L80.9153666,89.9825817 L77.9948975,89.9825817 L77.9834478,84.526515 C77.9825672,83.9593311 77.5219402,83.5013408 76.9556357,83.5013408 L76.9529937,83.5013408 L67.281603,83.5013408 C67.1151455,83.5013408 66.961012,83.5453767 66.821854,83.6149557 L66.8209733,83.6114328 L60.4560506,86.8155389 L60.4560506,89.6762594 L57.5610592,89.0668006 L57.5231876,73.0304872 C57.5231876,72.5760367 57.222866,72.1761716 56.7877831,72.0458294 C56.3509415,71.9154826 55.8832787,72.0881043 55.6349046,72.4685793 L50.1673391,80.8381257 C50.0581298,81.0054648 50,81.2001124 50,81.4000336 L50,96.7511539 C50,96.8506772 50.0176146,96.9440339 50.0449175,97.0356252 C50.0361101,97.0655694 50.0246606,97.0919918 50.0193766,97.1228176 C49.9110467,97.6803289 50.2756645,98.2193295 50.8340551,98.3276662 L56.3237164,99.3880582 L148.690627,117.234192 C148.756682,117.247403 148.821855,117.253568 148.886149,117.253568 C149.369663,117.253568 149.79947,116.911851 149.893715,116.420402 C150.002045,115.86289 149.637427,115.32389 149.079036,115.215553 L127.159397,110.981064 L149.306983,100.982071 C149.824857,100.748668 150.053841,100.139209 149.821317,99.6231157 C149.587914,99.1061208 148.980214,98.8762576 148.462362,99.1087813 L123.661034,110.304552 L117.135805,109.043337 L149.210686,98.3045869 C149.708291,98.1381295 149.989245,97.6281871 149.887086,97.1270424 C149.909104,97.0213549 149.917912,96.9121457 149.904701,96.7994169 C149.836003,96.2366296 149.326063,95.8359078 148.761517,95.9028263 C121.480056,99.1932862 107.327516,101.953449 99.9164285,105.427889 C99.7948885,105.484256 99.6909619,105.564402 99.6046533,105.655994 L93.4307008,104.463478 C94.8495623,103.950023 96.4163298,103.448878 98.1364147,102.962727 L98.1356833,102.962933 Z M132.999587,89.0430752 L135.201404,89.0430752 L135.201404,94.6242759 C132.538192,94.9193215 129.98839,95.2205224 127.544332,95.5270217 L127.544332,89.0421508 L132.999587,89.0430752 Z M138.902303,76.4354327 L147.946446,79.7504684 L147.946446,93.336636 C146.110133,93.5066176 144.316884,93.6792326 142.566136,93.853631 L142.566136,80.6162602 C142.566136,80.0481971 142.106387,79.5884481 141.538323,79.5884481 L138.902303,79.5884481 L138.902303,76.4354327 Z M134.028391,81.6441625 L140.510556,81.6441625 L140.510556,94.0606094 C139.407889,94.1742242 138.325469,94.2869553 137.257073,94.4023266 L137.257073,88.0171119 C137.257073,87.4490487 136.797324,86.9892997 136.229261,86.9892997 L134.027444,86.9892997 L134.026563,81.6441625 L134.028391,81.6441625 Z M122.115637,74.6486097 L124.121929,71.5678338 L128.815242,75.5434867 L128.929736,86.9886233 L126.518371,86.9886233 C125.950308,86.9886233 125.490559,87.4483723 125.490559,88.0164355 L125.490559,95.7932301 C124.318312,95.9464776 123.171634,96.1014881 122.050389,96.2573757 L122.115637,74.6486097 Z M108.990999,81.4935508 L115.054022,80.1513255 L115.002059,97.3176776 C112.869821,97.6646933 110.849415,98.0196228 108.937458,98.3833681 L108.990999,81.4935508 Z M94.911736,73.7025518 L96.9250853,76.6257265 L96.9250853,101.176787 C95.4225532,101.613628 94.0379852,102.061044 92.7645498,102.520771 L92.7821644,76.6417121 L94.911736,73.7025518 Z M87.7752666,92.0314098 L90.7178314,92.0314098 L90.7099049,103.315338 C90.3655498,103.458015 90.0308671,103.601568 89.7058795,103.746024 L87.701346,103.358492 L87.7752666,92.0314098 Z M85.7601586,85.7553209 L85.7293328,90.5509959 C85.6623963,90.6875092 85.6236454,90.8407656 85.6236454,91.0045671 C85.6236454,91.1630995 85.6597561,91.3128251 85.7231686,91.444926 L85.6483069,102.96131 L83.0985049,102.468981 L82.9065065,85.7562679 L85.7600121,85.7571485 L85.7601586,85.7553209 Z M80.9223214,92.0314098 L81.0385787,102.070762 L78.0044744,101.484188 L77.9842176,92.0312745 L80.9223214,92.0314098 Z M70.349966,85.5492083 L75.9144822,85.5492083 L75.9259317,90.8328292 C75.9171245,90.8883143 75.91184,90.9446809 75.91184,91.0028108 C75.91184,91.0618199 75.9171245,91.1199474 75.9259317,91.1763141 L75.9479498,101.085347 L68.2935835,99.6066012 L68.2935835,85.5492083 L70.349966,85.5492083 Z M62.494709,88.0742451 L66.2379058,86.1894794 L66.2379058,99.2110787 L62.494709,98.4880072 L62.494709,88.0742451 Z M60.439964,91.7698685 L60.439964,98.0908252 L57.5564714,97.5341932 L57.5476642,91.1602518 L60.439964,91.7698685 Z M55.471807,76.4769185 L55.4999904,97.1361995 L52.0546349,96.4703741 L52.0546349,81.7074961 L55.471807,76.4769185 Z M125.490466,104.080797 L124.206366,104.511483 L124.206366,101.372537 C124.629116,101.30296 125.056262,101.233381 125.490466,101.162923 L125.490466,104.080797 Z M127.545211,100.837911 C131.473291,100.228452 135.848696,99.6128151 140.724411,98.9804488 L127.545211,103.392831 L127.545211,100.837911 Z M122.149795,105.199337 L117.422887,106.782879 L117.422887,102.58176 C118.906029,102.29465 120.479989,102.007519 122.149795,101.718651 L122.149795,105.199337 Z M115.366406,107.470688 L113.927298,107.952442 L113.927298,103.296105 C114.39584,103.193942 114.875836,103.093537 115.366406,102.992244 L115.366406,107.470688 Z M111.872575,103.759282 L111.872575,108.029168 L103.07577,106.329353 C105.413182,105.43894 108.304566,104.591682 111.872575,103.759484 L111.872575,103.759282 Z M72.1994687,94.5945143 L70.3490642,94.5945143 L70.3490642,92.5397694 L72.1994687,92.5397694 L72.1994687,94.5945143 Z M112.900703,82.4677921 L112.900703,84.5225371 L111.050299,84.5225371 L111.050299,82.4677921 L112.900703,82.4677921 Z M109.479924,93.3614374 L111.330328,93.3614374 L111.330328,95.4161823 L109.479924,95.4161823 L109.479924,93.3614374 Z M124.307961,79.1782341 L124.307961,81.2329791 L122.458436,81.2329791 L122.458436,79.1782341 L124.307961,79.1782341 Z M87.5411195,107.672706 L87.3121356,108.674093 L83.2810179,107.750199 L83.5100018,106.748811 L87.5411195,107.672706 Z M69.0043812,103.423111 L68.7753973,104.424498 L64.7442796,103.500604 L64.9732635,102.499216 L69.0043812,103.423111 Z M81.3619813,106.256324 L81.1329974,107.257712 L77.1018797,106.333817 L77.3308636,105.33243 L81.3619813,106.256324 Z M56.4163543,101.593675 L50.6651518,100.275213 L50.8941357,99.273826 L56.6453382,100.592287 L56.4163543,101.593675 Z M62.8245666,102.007609 L62.5955827,103.008996 L58.564465,102.085102 L58.7934489,101.083714 L62.8245666,102.007609 Z M75.1828431,104.839244 L74.9538592,105.840632 L70.9227414,104.916737 L71.1517253,103.91535 L75.1828431,104.839244 Z M136.97197,118.999675 L136.742987,120.001063 L132.711869,119.077168 L132.940853,118.075781 L136.97197,118.999675 Z M130.792832,117.584354 L130.563848,118.585741 L126.532731,117.661846 L126.761715,116.660459 L130.792832,117.584354 Z M143.151109,120.415989 L142.922125,121.417376 L138.891007,120.493482 L139.119991,119.492094 L143.151109,120.415989 Z M149.331149,122.887328 L145.069379,121.910607 L145.298363,120.90922 L149.560133,121.885941 L149.331149,122.887328 Z M124.613243,116.168198 L124.384259,117.169585 L120.353142,116.245691 L120.582125,115.244303 L124.613243,116.168198 Z M118.435909,114.751997 L118.206925,115.753384 L114.173101,114.82949 L114.402085,113.828102 L118.435909,114.751997 Z M106.077632,111.920362 L105.848648,112.921749 L101.817531,111.997854 L102.046515,110.996467 L106.077632,111.920362 Z M112.25677,113.336562 L112.027787,114.33795 L107.996669,113.414055 L108.225653,112.412668 L112.25677,113.336562 Z M99.898494,110.504251 L99.6695101,111.505638 L95.6383924,110.581744 L95.8673763,109.580356 L99.898494,110.504251 Z M93.7193558,109.088929 L93.4903719,110.090317 L89.4592542,109.166422 L89.6882381,108.165035 L93.7193558,109.088929 Z M98.1335639,123.770639 L97.5293584,124.602927 C95.1134836,122.849405 93.1291518,121.071217 91.6338572,119.319342 L92.4159558,118.651758 C93.8603401,120.342757 95.7839762,122.064646 98.1335639,123.770526 L98.1335639,123.770639 Z M100.282509,125.248505 C102.448228,126.667367 104.959137,128.109226 107.747483,129.533273 L107.27982,130.448352 C104.460586,129.006605 101.916195,127.547273 99.7206009,126.109021 L100.282509,125.248505 Z M67.0960769,118.788436 C66.9375468,118.554153 66.9983168,118.234464 67.234351,118.075037 C68.7016427,117.081586 70.0993554,116.043199 71.3906027,114.987271 C71.6107844,114.808483 71.9340224,114.84019 72.1136742,115.05949 C72.2924624,115.278793 72.2607551,115.60291 72.041455,115.782562 C70.7274129,116.857925 69.3031629,117.915679 67.8103484,118.925792 C67.7231559,118.984801 67.6218718,119.014753 67.5232392,119.014753 C67.3559001,119.015626 67.1947343,118.93548 67.0960926,118.788399 L67.0960769,118.788436 Z M59.3887259,123.822654 C57.289068,124.876891 55.0378965,125.899405 52.7004841,126.862846 C52.63619,126.888387 52.570135,126.901599 52.5049617,126.901599 C52.3023934,126.901599 52.1121537,126.78182 52.0293624,126.583646 C51.9210324,126.321181 52.0460963,126.020859 52.3085577,125.912522 C54.6222962,124.958686 56.848779,123.946724 58.9271303,122.903896 C59.1807803,122.776189 59.4899176,122.879234 59.6167425,123.13288 C59.7444491,123.38653 59.6422834,123.694788 59.388638,123.822492 L59.3887259,123.822654 Z M60.6199766,122.614288 C60.4861058,122.364156 60.5812234,122.052381 60.8313515,121.918521 C62.4404392,121.058929 63.9939718,120.158822 65.4489079,119.241105 C65.6884662,119.088739 66.0064192,119.160958 66.1578877,119.402277 C66.3084926,119.641836 66.2380343,119.959789 65.9967151,120.111257 C64.5214871,121.041307 62.9459263,121.954627 61.3155772,122.82565 C61.238073,122.867043 61.1561655,122.88642 61.0733809,122.88642 C60.8910709,122.885539 60.7131529,122.786897 60.6198097,122.614282 L60.6199766,122.614288 Z" id="Shape" fill="#C3A062" fill-rule="nonzero"></path>
        </g>
    </g>
</svg>