<?xml version="1.0" encoding="UTF-8"?>
<svg width="200px" height="200px" viewBox="0 0 200 200" version="1.1" xmlns="http://www.w3.org/2000/svg" xmlns:xlink="http://www.w3.org/1999/xlink">
    <title>Group 17</title>
    <g id="Page-1" stroke="none" stroke-width="1" fill="none" fill-rule="evenodd">
        <g id="Group-17">
            <g id="Group-11" fill="#F7ECD8">
                <circle id="Oval" cx="100" cy="100" r="100"></circle>
            </g>
            <g id="Group-16" transform="translate(50.000000, 50.000000)" fill="#C29F60" fill-rule="nonzero">
                <polygon id="Path" points="53.3333333 56.6666667 60 56.6666667 60 60 53.3333333 60"></polygon>
                <polygon id="Path" points="53.3333333 48.3333333 60 48.3333333 60 51.6666667 53.3333333 51.6666667"></polygon>
                <polygon id="Path" points="53.3333333 40 60 40 60 43.3333333 53.3333333 43.3333333"></polygon>
                <path d="M38.3333333,26.3961905 L38.3333333,20.2712381 L34.5417143,19.3545714 L34.0833905,18.229581 L36.1251048,14.8962476 L31.7917714,10.5629143 L28.4584381,12.6046286 L27.3334476,12.1463048 L26.3959429,8.33373333 L20.2709905,8.33373333 L19.3543238,12.1253524 L18.2293333,12.5836762 L14.896,10.5419619 L10.5419048,14.8960571 L12.583619,18.2293905 L12.1252952,19.354381 L8.33367619,20.2710476 L8.33367619,26.396 L12.1252952,27.3126667 L12.583619,28.4376571 L10.5419048,31.7709905 L14.8752381,36.1043238 L18.2085714,34.0626095 L19.3335619,34.5209333 L20.2502286,38.3125524 L26.375181,38.3125524 L27.2918476,34.5209333 L28.4168381,34.0626095 L31.7501714,36.1043238 L36.0835048,31.7709905 L34.0417905,28.4376571 L34.5001143,27.3126667 L38.3333333,26.3961905 Z M32.1041905,24.4586667 L30.3333524,28.7295238 L31.8958476,31.2712381 L31.2708571,31.8962286 L28.7291429,30.3337333 L24.4582857,32.1045714 L23.770781,35.000381 L22.8957714,35.000381 L22.2082667,32.1045714 L17.9374095,30.3337333 L15.3956952,31.8962286 L14.7707048,31.2712381 L16.3332,28.7295238 L14.5623619,24.4586667 L11.6665524,23.7711619 L11.6665524,22.8961524 L14.5623619,22.2086476 L16.3332,17.9377905 L14.7707048,15.3960762 L15.3956952,14.7710857 L17.9374095,16.333581 L22.2082667,14.5627429 L22.8957714,11.6669333 L23.770781,11.6669333 L24.4582857,14.5627429 L28.7291429,16.333581 L31.2708571,14.7710857 L31.8958476,15.3960762 L30.3333524,17.9377905 L32.1041905,22.2086476 L35,22.8961524 L35,23.7711619 L32.1041905,24.4586667 Z" id="Shape"></path>
                <path d="M23.3333333,18.3333333 C20.5624762,18.3333333 18.3333333,20.5624762 18.3333333,23.3333333 C18.3333333,26.1041905 20.5624762,28.3333333 23.3333333,28.3333333 C26.1041905,28.3333333 28.3333333,26.1041905 28.3333333,23.3333333 C28.3333333,20.5832381 26.0834286,18.3333333 23.3333333,18.3333333 Z M23.3333333,25 C22.4166667,25 21.6666667,24.25 21.6666667,23.3333333 C21.6666667,22.4166667 22.4166667,21.6666667 23.3333333,21.6666667 C24.25,21.6666667 25,22.4166667 25,23.3333333 C25,24.25 24.25,25 23.3333333,25 Z" id="Shape"></path>
                <path d="M82.3961905,31.6666667 C84.6670476,31.6666667 86.6670476,30.1249905 87.2295238,27.9165714 L88.8128571,29.4999048 L91.1669524,27.1458095 L88.1669524,24.1458095 L89.6252762,18.3332381 L91.6669905,18.3332381 L91.6669905,14.9999048 L61.6669905,14.9999048 L61.6669905,18.3332381 L63.7087048,18.3332381 L65.1670286,24.1458095 L62.1670286,27.1458095 L64.5211238,29.4999048 L66.1044571,27.9165714 C66.6669524,30.1249524 68.6669333,31.6666667 70.9377905,31.6666667 L82.3961905,31.6666667 Z M86.2087619,18.3333333 L85.4379238,21.4167619 L82.3544952,18.3333333 L86.2087619,18.3333333 Z M67.1249524,18.3333333 L70.9582857,18.3333333 L67.8748571,21.4167619 L67.1249524,18.3333333 Z M69.312381,27.0624762 L68.833219,25.1666476 L75.6873143,18.3125524 L77.6456,18.3125524 L84.4996952,25.1666476 L84.0205333,27.0624762 C83.8330324,27.8124762 83.1663619,28.3333143 82.3955429,28.3333143 L70.9372571,28.3333143 C70.166419,28.3333143 69.4997524,27.8124762 69.3122667,27.0624762 L69.312381,27.0624762 Z" id="Shape"></path>
                <path d="M38.3333333,75.9790476 L34.0207619,71.6664762 L30,71.6664762 L30,66.6664762 L10,66.6664762 L10,83.3331429 L11.9582857,83.3331429 C11.041619,85.9373333 12.3957905,88.7914286 15,89.7081905 C17.6042095,90.6249524 20.4582857,89.2706857 21.3750476,86.6664762 C21.7500571,85.5831429 21.7500571,84.4165714 21.3750476,83.3331429 L26.9582857,83.3331429 C26.041619,85.9373333 27.3957905,88.7914286 30,89.7081905 C32.6042095,90.6249524 35.4582857,89.2706857 36.3750476,86.6664762 C36.7500571,85.5831429 36.7500571,84.4165714 36.3750476,83.3331429 L38.3333333,83.3331429 L38.3333333,75.9790476 Z M16.6666667,86.6664762 C15.75,86.6664762 15,85.9164762 15,84.9998095 C15,84.0831429 15.75,83.3331429 16.6666667,83.3331429 C17.5833333,83.3331429 18.3333333,84.0831429 18.3333333,84.9998095 C18.3333333,85.9164762 17.5833333,86.6664762 16.6666667,86.6664762 Z M26.6666667,79.9998095 L13.3333333,79.9998095 L13.3333333,69.9998095 L26.6666667,69.9998095 L26.6666667,79.9998095 Z M31.6666667,86.6664762 C30.75,86.6664762 30,85.9164762 30,84.9998095 C30,84.0831429 30.75,83.3331429 31.6666667,83.3331429 C32.5833333,83.3331429 33.3333333,84.0831429 33.3333333,84.9998095 C33.3333333,85.9164762 32.5833333,86.6664762 31.6666667,86.6664762 Z M35,79.9998095 L30,79.9998095 L30,74.9998095 L32.6459048,74.9998095 L35,77.3539048 L35,79.9998095 Z" id="Shape"></path>
                <path d="M66.6666667,33.3333333 L46.6666667,33.3333333 L46.6666667,46.6666667 L41.6666667,42.9165714 L33.3333333,49.1664762 L33.3333333,66.6664762 L66.6666667,66.6664762 L66.6666667,33.3333333 Z M46.6666667,63.3333333 L43.3333333,63.3333333 L43.3333333,53.3333333 L40,53.3333333 L40,63.3333333 L36.6666667,63.3333333 L36.6666667,50.8333333 L41.6666667,47.0832381 L46.6666667,50.8333333 L46.6666667,63.3333333 Z M63.3333333,63.3333333 L50,63.3333333 L50,36.6666667 L63.3333333,36.6666667 L63.3333333,63.3333333 Z" id="Shape"></path>
                <path d="M72.7085714,86.207619 C76.0419048,88.6868571 80.604381,88.6868571 83.9377143,86.207619 C84.9793905,85.436781 86.2502857,84.9992762 87.5626667,84.9992762 L91.6668571,84.9992762 L91.6668571,81.6659429 L87.5626667,81.6659429 C85.5419048,81.6659429 83.5626667,82.3326095 81.9377143,83.5409524 C79.7918095,85.1451238 76.8542857,85.1451238 74.7085714,83.5409524 C73.083581,82.3326095 71.1253333,81.6659429 69.083619,81.6659429 L69.0002857,81.6659429 L71.1461905,79.5200381 L68.7920952,77.1659429 L62.6461905,83.3326095 L68.833619,89.5200381 L71.1877143,87.1659429 L69.0210476,84.9992762 L69.104381,84.9992762 C70.3960381,84.9992762 71.6668571,85.4159429 72.7085714,86.207619 Z" id="Path"></path>
                <path d="M82.2914286,68.792381 C78.9580952,66.3131429 74.395619,66.3131429 71.0622857,68.792381 C70.0206095,69.563219 68.7497143,70.0007238 67.4373333,70.0007238 L63.3331429,70.0007238 L63.3331429,73.3340571 L67.4373333,73.3340571 C69.4580952,73.3340571 71.4373333,72.6673905 73.0622857,71.4590476 C75.2081905,69.8548762 78.1457143,69.8548762 80.2914286,71.4590476 C81.916419,72.6673905 83.8746667,73.3340571 85.916381,73.3340571 L85.9997143,73.3340571 L83.8538095,75.4799619 L86.2079048,77.8340571 L92.3953333,71.6466286 L86.2079048,65.4592 L83.8538095,67.8132952 L85.9997143,69.9592 L85.916381,69.9592 C84.6038857,70.0008667 83.3331429,69.5841905 82.2914286,68.7925333 L82.2914286,68.792381 Z" id="Path"></path>
                <path d="M76.6666667,53.3333333 L70,53.3333333 L70,56.6666667 L76.6666667,56.6666667 C87.708381,56.6666667 96.6666667,65.6249524 96.6666667,76.6666667 C96.6666667,87.708381 87.708381,96.6666667 76.6666667,96.6666667 C65.6249524,96.6666667 56.6666667,87.708381 56.6666667,76.6666667 L56.6666667,70 L53.3333333,70 L53.3333333,76.6666667 C53.3333333,89.5624762 63.7708571,100 76.6666667,100 C89.5624762,100 100,89.5624762 100,76.6666667 C100,63.7708571 89.5624762,53.3333333 76.6666667,53.3333333 Z" id="Path"></path>
                <path d="M43.3333333,76.6666667 C43.3333333,87.708381 34.3750476,96.6666667 23.3333333,96.6666667 C12.291619,96.6666667 3.33333333,87.708381 3.33333333,76.6666667 C3.33333333,65.6249524 12.291619,56.6666667 23.3333333,56.6666667 L30,56.6666667 L30,53.3333333 L23.3333333,53.3333333 C10.4375238,53.3333333 0,63.7708571 0,76.6666667 C0,89.5624762 10.4375238,100 23.3333333,100 C36.2291429,100 46.6666667,89.5624762 46.6666667,76.6666667 L46.6666667,70 L43.3333333,70 L43.3333333,76.6666667 Z" id="Path"></path>
                <path d="M23.3333333,46.6666667 L30,46.6666667 L30,43.3333333 L23.3333333,43.3333333 C12.291619,43.3333333 3.33333333,34.3750476 3.33333333,23.3333333 C3.33333333,12.291619 12.291619,3.33333333 23.3333333,3.33333333 C34.3750476,3.33333333 43.3333333,12.291619 43.3333333,23.3333333 L43.3333333,30 L46.6666667,30 L46.6666667,23.3333333 C46.6666667,10.4375238 36.2291429,0 23.3333333,0 C10.4375238,0 0,10.4375238 0,23.3333333 C0,36.2291429 10.4375238,46.6666667 23.3333333,46.6666667 Z" id="Path"></path>
                <path d="M56.6666667,23.3333333 C56.6666667,12.291619 65.6249524,3.33333333 76.6666667,3.33333333 C87.708381,3.33333333 96.6666667,12.291619 96.6666667,23.3333333 C96.6666667,34.3750476 87.708381,43.3333333 76.6666667,43.3333333 L70,43.3333333 L70,46.6666667 L76.6666667,46.6666667 C89.5624762,46.6666667 100,36.2291429 100,23.3333333 C100,10.4375238 89.5624762,0 76.6666667,0 C63.7708571,0 53.3333333,10.4375238 53.3333333,23.3333333 L53.3333333,30 L56.6666667,30 L56.6666667,23.3333333 Z" id="Path"></path>
            </g>
        </g>
    </g>
</svg>