<?xml version="1.0" encoding="UTF-8"?>
<svg width="200px" height="200px" viewBox="0 0 200 200" version="1.1" xmlns="http://www.w3.org/2000/svg" xmlns:xlink="http://www.w3.org/1999/xlink">
    <title>Group 14</title>
    <g id="Page-1" stroke="none" stroke-width="1" fill="none" fill-rule="evenodd">
        <g id="Group-14">
            <circle id="Oval" fill="#F7ECD8" cx="100" cy="100" r="100"></circle>
            <g id="Group-13" transform="translate(43.000000, 50.000000)" fill="#C29F60" fill-rule="nonzero">
                <path d="M38.6671525,99.9476178 C38.1779265,99.9476178 37.6980103,99.7913641 37.329692,99.4546775 L9.5480782,73.9135932 C9.30066755,73.6866544 9.11280593,73.4029858 8.99839845,73.0876688 L0.50105327,49.577109 C-0.218821013,47.9345937 -0.168605531,45.9358318 0.688000578,44.2169814 C1.54368762,42.4991309 3.1080582,41.2554823 4.98119804,40.806424 C7.17432168,40.266054 9.45106637,40.9087335 11.0675334,42.5242744 C11.5586165,43.0144289 11.9594832,43.5687516 12.2617523,44.1723851 L19.6409756,58.634158 C20.9616976,58.1346937 22.4527093,58.1477178 23.8189323,58.7429772 L36.6856672,64.3383485 C39.4097797,65.5279245 41.5369732,67.7936689 42.5255681,70.5596871 L45.887791,79.9330055 L51.3026819,85.3488488 C52.1165108,86.1626777 52.1165108,87.48059 51.3026819,88.2953475 L40.3231347,99.2748946 C39.8878625,99.7092383 39.2712049,99.9482678 38.6657381,99.9482678 L38.6671525,99.9476178 Z M12.7451067,71.1897902 L38.6766765,95.0308341 L46.8873482,86.8201624 L42.613675,82.5455368 C42.3969651,82.3288269 42.2304754,82.0665492 42.1263063,81.7772804 L38.6059843,71.9629991 C38.0023509,70.2721017 36.6974627,68.8853068 35.0251848,68.1562418 L22.1594023,62.5618229 C21.5260062,62.2883878 20.9465639,62.5422912 20.641509,62.8464249 C20.641509,62.8473552 20.548502,62.9571037 20.5122273,63.0017477 C20.5038567,63.0110486 20.497346,63.0212796 20.4889754,63.0305793 C20.3941064,63.1598609 20.3113307,63.3384438 20.2666867,63.5365437 C20.1262453,64.1513203 20.4220095,64.7819305 20.9856324,65.0730327 L32.5316216,71.0022215 C33.5547174,71.5277102 33.9592985,72.7842639 33.4328812,73.8082407 C32.9073925,74.8304079 31.6545531,75.2359175 30.626862,74.7095002 L19.0751584,68.7765018 C16.8206285,67.6111169 15.6412671,65.0776042 16.2012804,62.6146884 C16.275687,62.2863711 16.3779965,61.9673397 16.5091449,61.6604276 L8.54395524,46.050056 C8.43792653,45.835208 8.295616,45.6398795 8.12449288,45.4687564 C7.54876488,44.893957 6.74238854,44.667023 5.967632,44.8530513 C5.27566314,45.0186052 4.72969776,45.4510893 4.4199761,46.0733184 C4.10932585,46.6955475 4.09351595,47.3931117 4.37347261,48.0357937 L12.7451067,71.1897902 Z" id="Shape"></path>
                <path d="M38.8528712,99.8833306 C38.4994342,99.8833306 38.1432114,99.7940427 37.8204894,99.6089669 L37.1675691,99.2360056 C37.0308468,99.1578799 36.9043486,99.0648706 36.7880839,98.9579038 L32.2772622,94.7975666 C31.8643,94.4162242 31.6224847,93.8842353 31.6076034,93.3215315 C31.5927221,92.7588276 31.8057105,92.2147432 32.1982127,91.8120193 L43.352764,80.3776995 C43.7415352,79.97869 44.2744764,79.751756 44.8306564,79.7489702 C45.4575284,79.7275783 45.9234919,79.9647492 46.3169298,80.3591038 L51.3058581,85.3480321 C52.119687,86.161861 52.119687,87.4797733 51.3058581,88.2945308 L40.326311,99.274078 C39.9263729,99.6749446 39.3915745,99.8833306 38.8530617,99.8833306 L38.8528712,99.8833306 Z M36.6774146,93.1876949 L38.6761527,95.0311198 L46.8868244,86.8204481 L44.8620381,84.7956618 L36.6774146,93.1876949 Z" id="Shape"></path>
                <path d="M22.9977318,62.737208 C22.00347,62.737208 21.1236157,62.0238339 20.9468972,61.0109765 L19.1016152,50.4164385 C18.9648929,49.6323722 18.2887149,49.0538584 17.4925769,49.0417867 C16.5792456,49.0585281 16.2081415,49.5849425 16.0583999,49.8230434 C15.9095868,50.0630015 15.6035795,50.7010405 15.9886435,51.4544156 L16.4815838,52.4226291 C17.0042867,53.4466535 16.5978437,54.7022548 15.5719669,55.2241244 C14.5451567,55.7468273 13.2923412,55.3403843 12.7704716,54.3145075 L12.2775313,53.3472226 C11.3409376,51.5112503 11.4320826,49.3692707 12.5230609,47.6187528 C13.6121821,45.8683302 15.4017009,44.8377342 17.5584189,44.8741637 C20.3532474,44.9188076 22.7297325,46.9482369 23.2085534,49.7011834 L25.0538355,60.2957213 C25.2510116,61.4285578 24.4920602,62.5083931 23.3582951,62.7055406 C23.2364541,62.7269323 23.1146226,62.737208 22.9974294,62.737208 L22.9977318,62.737208 Z" id="Path"></path>
                <path d="M74.8037271,100 C74.2698573,100 73.736916,99.7953808 73.3304778,99.3898664 L62.233785,88.2931736 C61.4199561,87.4793447 61.4199561,86.1614324 62.233785,85.3466749 L67.6486758,79.9308317 L71.0118511,70.5546561 C71.9995889,67.791495 74.1266872,65.5247744 76.849133,64.3371271 L89.7187251,58.7408034 C91.0813052,58.1474083 92.5721264,58.1297412 93.8947769,58.6329151 L101.283286,44.154237 C101.577198,43.5673659 101.978065,43.0130194 102.469148,42.5228648 C104.08471,40.908255 106.365193,40.2655492 108.566674,40.8068716 C110.428694,41.2542394 111.993184,42.497769 112.848681,44.2155242 C113.705296,45.934327 113.75644,47.9329936 112.987262,49.6982738 L104.53849,73.0852592 C104.425021,73.4005524 104.236221,73.6842258 103.98881,73.9111836 L76.2095773,99.4522679 C75.8105678,99.8178004 75.3064605,99.9991619 74.8033057,99.9991619 L74.8037271,100 Z M66.6535331,86.8199243 L74.8642048,95.030596 L100.795775,71.1895521 L109.119068,48.1597181 C109.447385,47.3933189 109.431575,46.6967071 109.120928,46.074478 C108.812135,45.4522489 108.265241,45.0197624 107.584439,44.856068 C106.800373,44.6672611 105.992139,44.8932713 105.416411,45.469916 C105.245276,45.6391914 105.102975,45.8344961 105.003449,46.0335484 L97.0289737,61.6617777 C97.1619745,61.9724279 97.265215,62.2895783 97.339624,62.6160385 C97.899542,65.0770495 96.719252,67.6097288 94.4702699,68.7721374 L82.9140424,74.707993 C81.8872322,75.2334817 80.6353453,74.8289031 80.1080232,73.8067335 C79.5825345,72.7836377 79.9861822,71.5271078 81.0092828,71.0007143 L92.5609864,65.0677159 C93.1190473,64.7793995 93.415721,64.1487893 93.2762177,63.5367985 C93.2315738,63.340551 93.1506575,63.1656944 93.0297356,63.0010715 C93.022295,62.9917708 93.0157843,62.9815398 93.0083437,62.9722398 C92.5925957,62.5397533 92.0131533,62.2839853 91.3834955,62.5602062 L78.5148557,68.1555775 C76.844435,68.8838329 75.5395468,70.2705803 74.9369134,71.9578109 L71.4146867,81.7756637 C71.3105175,82.0649087 71.1440374,82.3272006 70.9273179,82.5439201 L66.6535331,86.8199243 Z" id="Shape"></path>
                <path d="M74.6870577,99.8833782 C74.1476163,99.8833782 73.6137464,99.6749923 73.2128797,99.273197 L62.2333326,88.2936498 C61.4195037,87.4798209 61.4195037,86.1619086 62.2333326,85.3471511 L67.2222609,80.3582228 C67.6128893,79.9675945 68.1430447,79.7480892 68.6955103,79.7480892 L68.7085313,79.7480892 C69.2647112,79.7508793 69.7976525,79.9778185 70.1864236,80.3768185 L81.3409749,91.8111384 C81.7334605,92.2138622 81.9473941,92.7579704 81.9315842,93.3206505 C81.917633,93.8833544 81.6748876,94.415367 81.2619254,94.7966856 L76.7511037,98.9570228 C76.6348438,99.0639825 76.5083599,99.1560609 76.3716185,99.2351246 L75.7186982,99.6080859 C75.3978096,99.7941022 75.0406583,99.8833782 74.6872451,99.8833782 L74.6870577,99.8833782 Z M66.6530569,86.8204005 L74.8637286,95.0310722 L76.8624666,93.1876473 L68.677748,84.7964952 L66.6530569,86.8204005 Z" id="Shape"></path>
                <path d="M90.5421971,62.737208 C90.4240776,62.737208 90.3040962,62.7269771 90.1831886,62.7065144 C89.0484949,62.5093383 88.2904768,61.4295078 88.4876482,60.2966952 L90.3329302,49.7021572 C90.8119178,46.9492345 93.1882363,44.9196624 95.9830647,44.8751375 C97.9687787,44.8546756 99.926492,45.8684707 101.018423,47.6197267 C102.108472,49.3701493 102.200546,51.5122003 101.263952,53.3489107 L100.771012,54.315267 C100.251095,55.34022 98.9954936,55.7475868 97.9695168,55.2248839 C96.9445638,54.7031096 96.537197,53.4475083 97.0598999,52.4233887 L97.5528402,51.4561037 C97.9369684,50.7008714 97.6309683,50.063761 97.4830838,49.8238029 C97.3352017,49.5875616 96.9054986,49.0425463 96.0786694,49.0425463 L96.0489068,49.0425463 C95.252745,49.0546375 94.5756574,49.632227 94.4398685,50.417198 L92.5945864,61.011736 C92.4160108,62.0236648 91.5361565,62.737208 90.5418947,62.737208 L90.5421971,62.737208 Z" id="Path"></path>
                <path d="M56.7699644,58.3347223 C40.6869625,58.3347223 27.6026033,45.2503631 27.6026033,29.1673611 C27.6026033,13.0843592 40.6869625,0 56.7699644,0 C72.8529664,0 85.9373256,13.0843592 85.9373256,29.1673611 C85.9373256,45.2503631 72.8529664,58.3347223 56.7699644,58.3347223 Z M56.7699644,4.16676588 C42.9851124,4.16676588 31.7693692,15.3825091 31.7693692,29.1673611 C31.7693692,42.9522131 42.9851124,54.1679564 56.7699644,54.1679564 C70.5548165,54.1679564 81.7705597,42.9522131 81.7705597,29.1673611 C81.7705597,15.3825091 70.5548165,4.16676588 56.7699644,4.16676588 Z" id="Shape"></path>
                <path d="M56.7699644,50.9488321 C55.4241467,50.9488321 54.0532331,50.8204814 52.696296,50.5693469 C49.3405018,49.9313079 46.1337588,48.4831782 43.4167894,46.376628 C41.9751598,45.26053 40.6786289,43.9639515 39.5616976,42.5215362 C36.570674,38.6783495 34.9894459,34.0606205 34.9894459,29.1683612 C34.9894459,18.7085883 42.4329564,9.70908831 52.6889149,7.76904212 C55.416837,7.2621491 58.1299968,7.26493488 60.8448234,7.76718208 C71.1074487,9.70918069 78.5507211,18.7086331 78.5507211,29.1684059 C78.5507211,34.0606653 76.9686596,38.6783942 73.9746598,42.5253906 C72.8613476,43.9642344 71.5648405,45.2606938 70.1221871,46.3778633 C67.4064082,48.4835801 64.199427,49.9327098 60.8519664,50.567963 C59.4866005,50.8209453 58.1157108,50.9493055 56.7697263,50.9493055 L56.7699644,50.9488321 Z M56.7699644,11.555037 C55.6780575,11.555037 54.5638167,11.6592062 53.4570284,11.8656873 C45.1727835,13.4319389 39.1562117,20.7089931 39.1562117,29.1689564 C39.1562117,33.1254792 40.4350755,36.8598538 42.8532045,39.9663563 C43.7572498,41.1354794 44.8045129,42.1818139 45.968993,43.0821448 C48.1695692,44.7888521 50.7617261,45.9607848 53.4653619,46.4750827 C55.6622238,46.8843306 57.8702287,46.8861878 60.0838529,46.4732225 C62.7791551,45.9616865 65.3713597,44.7897776 67.5709359,43.0840941 C68.7363208,42.1828346 69.7836076,41.1355716 70.6838671,39.9711629 C73.1048772,36.8601364 74.3837171,33.1257618 74.3837171,29.169239 C74.3837171,20.7092757 68.3661929,13.4321977 60.0752812,11.8631127 C58.9759217,11.6584935 57.8616809,11.555037 56.7697263,11.555037 L56.7699644,11.555037 Z" id="Shape"></path>
                <path d="M60.4629095,31.4721779 C59.3124059,31.4721779 58.3795266,30.5392986 58.3795266,29.388795 L58.3795266,9.81428129 C58.3795266,8.66377771 59.3124059,7.73089835 60.4629095,7.73089835 C61.6134131,7.73089835 62.5462924,8.66377771 62.5462924,9.81428129 L62.5462924,29.388795 C62.5462924,30.5392986 61.6134131,31.4721779 60.4629095,31.4721779 Z" id="Path"></path>
                <path d="M60.4629095,50.6035858 C59.3124059,50.6035858 58.3795266,49.6707064 58.3795266,48.5202029 L58.3795266,38.4156766 C58.3795266,37.265173 59.3124059,36.3322936 60.4629095,36.3322936 C61.6134131,36.3322936 62.5462924,37.265173 62.5462924,38.4156766 L62.5462924,48.5202029 C62.5462924,49.6707064 61.6134131,50.6035858 60.4629095,50.6035858 Z" id="Path"></path>
                <path d="M53.0770194,31.4721779 C51.9265158,31.4721779 50.9936364,30.5392986 50.9936364,29.388795 L50.9936364,9.81428129 C50.9936364,8.66377771 51.9265158,7.73089835 53.0770194,7.73089835 C54.2275229,7.73089835 55.1604023,8.66377771 55.1604023,9.81428129 L55.1604023,29.388795 C55.1604023,30.5392986 54.2275229,31.4721779 53.0770194,31.4721779 Z" id="Path"></path>
                <path d="M53.0770194,50.6035858 C51.9265158,50.6035858 50.9936364,49.6707064 50.9936364,48.5202029 L50.9936364,38.4156766 C50.9936364,37.265173 51.9265158,36.3322936 53.0770194,36.3322936 C54.2275229,36.3322936 55.1604023,37.265173 55.1604023,38.4156766 L55.1604023,48.5202029 C55.1604023,49.6707064 54.2275229,50.6035858 53.0770194,50.6035858 Z" id="Path"></path>
                <path d="M44.6958674,46.8130194 C44.0634238,46.8130194 43.4393375,46.5274887 43.0291611,45.9833806 C42.3371922,45.0635253 42.5204109,43.7576847 43.4402661,43.065692 L51.8240372,36.7522084 C52.7466782,36.0583585 54.049733,36.2443868 54.7417257,37.1633134 C55.4336945,38.0831686 55.2504759,39.3890093 54.3306206,40.0810019 L45.9468496,46.3944856 C45.5720312,46.6772304 45.1311635,46.8130194 44.6958912,46.8130194 L44.6958674,46.8130194 Z" id="Path"></path>
                <path d="M40.4171941,42.2295769 C39.8265848,42.2295769 39.2406423,41.9803091 38.8286087,41.4938927 C38.0836148,40.6168242 38.1905697,39.3016977 39.0685668,38.5576323 L51.7352969,27.8069002 C52.613294,27.0619062 53.927492,27.1697898 54.6715573,28.0468583 C55.4165513,28.9239268 55.3095963,30.2390533 54.4315992,30.9831186 L41.7648691,41.7338508 C41.3723835,42.0668111 40.8933721,42.2295769 40.4171703,42.2295769 L40.4171941,42.2295769 Z" id="Path"></path>
                <path d="M73.1227347,42.2295769 C72.6465329,42.2295769 72.1675453,42.0668135 71.7759884,41.7338508 L59.1092582,30.9831186 C58.2312611,30.2390533 58.1243062,28.9239268 58.8693001,28.0468583 C59.6133655,27.1697898 60.9247776,27.060049 61.8055605,27.8069002 L74.4722907,38.5576323 C75.3502878,39.3016977 75.4572427,40.6168242 74.7122488,41.4938927 C74.3002152,41.9794043 73.7142726,42.2295769 73.1227347,42.2295769 L73.1227347,42.2295769 Z" id="Path"></path>
            </g>
        </g>
    </g>
</svg>