<?xml version="1.0" encoding="UTF-8"?>
<svg width="200px" height="200px" viewBox="0 0 200 200" version="1.1" xmlns="http://www.w3.org/2000/svg" xmlns:xlink="http://www.w3.org/1999/xlink">
    <title>Group 11</title>
    <g id="Page-1" stroke="none" stroke-width="1" fill="none" fill-rule="evenodd">
        <g id="Group-11">
            <circle id="Oval" fill="#F7ECD8" cx="100" cy="100" r="100"></circle>
            <g id="Group-10" transform="translate(49.000000, 50.000000)" fill="#C29F60" fill-rule="nonzero">
                <g id="Group-9">
                    <path d="M101.851852,7.70021135 C101.851852,3.45404658 98.3899438,0 94.1336972,0 C92.0723847,0 90.1328293,0.801022968 88.6756343,2.2560721 L79.2674679,11.6379098 L59.8425443,5.17893583 C59.3456548,5.01448643 58.7978646,5.08723791 58.3602392,5.37747948 L53.2546105,8.77254886 C52.7949483,9.07870651 52.5138373,9.58796692 52.4971297,10.1374055 C52.4819344,10.689114 52.7372207,11.2120129 53.1778802,11.5431777 L69.401915,23.6820057 L58.6497527,35.537394 L47.6317087,33.9671647 C47.092282,33.8944132 46.5649921,34.0687141 46.186631,34.4476349 L42.7828785,37.8427043 C42.374117,38.250423 42.2008952,38.8377312 42.3216992,39.4030782 C42.4440223,39.9668925 42.8459354,40.4299411 43.3868987,40.6338005 L56.1988175,45.4262804 L59.3662523,56.4876105 C59.5334019,57.0650827 59.9923094,57.5129602 60.5765684,57.6637595 C60.7209244,57.6993767 60.8637673,57.7160494 61.0065887,57.7160494 C61.4525775,57.7160494 61.8879078,57.5409918 62.2100583,57.2189142 L65.6138108,53.8238448 C65.9336663,53.5063186 66.1122174,53.0735927 66.1122174,52.6234453 L66.1122174,42.8830883 C66.7177547,42.1290531 69.0616176,39.6971552 77.8399925,31.8710353 L90.2759425,48.5425719 C90.6064372,48.9859098 91.1952669,49.2450797 91.68531,49.2268821 C92.2384295,49.2132411 92.7505095,48.9313365 93.0589673,48.4713337 L96.4627197,43.3787296 C96.7537114,42.9422207 96.8266489,42.3973412 96.6602541,41.900206 L90.2098514,22.5960355 C94.7403432,18.5727813 98.1631567,14.9540254 99.8490839,13.0950794 C101.140682,11.6756688 101.851852,9.83872286 101.851852,7.9221577 L101.851852,7.70021135 Z M98.4477104,7.92224888 C98.4477104,8.99305376 98.049588,10.0221478 97.3263004,10.8179521 C95.583404,12.7375243 91.9396189,16.5843319 87.1165989,20.7909198 C86.5991896,21.2410672 86.4054675,21.9572135 86.6227436,22.6059239 L93.1667009,42.1886841 L91.5651089,44.5871551 L79.4627266,28.3591115 C79.1770448,27.9771565 78.7447488,27.7308684 78.2698961,27.6831241 C77.8003533,27.6338645 77.3217079,27.7884624 76.9646251,28.1044813 C62.7083483,40.7556738 62.7083483,41.4247935 62.7083483,42.4380762 L62.7083483,51.9207959 L61.8475295,52.7779055 L59.2400606,43.6688373 C59.0903869,43.1512347 58.7074609,42.7351932 58.2022273,42.5449724 L47.0618427,38.3777672 L47.9948404,37.4471496 L59.0653995,39.0241884 C59.6337095,39.1037611 60.1906217,38.8999056 60.5682243,38.4823353 L73.1811695,24.5776832 C73.5025421,24.2245378 73.6590563,23.7508965 73.6134849,23.275742 C73.569419,22.8005875 73.3240104,22.3655918 72.9395809,22.0806388 L57.1463639,10.2638573 L59.5577766,8.66105478 L79.1906209,15.1883182 C79.801468,15.3936908 80.4769087,15.2322717 80.9320001,14.777573 L91.083935,4.65367009 C91.8968873,3.84279172 92.9810699,3.39491417 94.1336972,3.39491417 C96.5110725,3.39491417 98.4477104,5.32661164 98.4477104,7.70005614 L98.4477104,7.92224888 Z" id="Shape"></path>
                    <path d="M15.2777196,98.4567901 C15.7293792,98.4567901 16.1621041,98.2771895 16.4796296,97.9573971 C17.0548113,97.3806954 30.5555556,83.7279369 30.5555556,74.6910617 C30.5555556,66.1884607 24.8452557,61.1111111 15.2777778,61.1111111 C5.71029982,61.1111111 0,66.1884607 0,74.6910617 C0,83.7271609 13.5007055,97.3792792 14.0759259,97.9573971 C14.3934515,98.2771856 14.8261764,98.4567901 15.277836,98.4567901 L15.2777196,98.4567901 Z M15.2777196,64.5069136 C19.7147743,64.5069136 27.1604356,65.8292904 27.1604356,74.6918765 C27.1604356,80.4193177 19.4503474,89.8488474 15.2777196,94.3110252 C11.1050917,89.8513694 3.39500353,80.4257197 3.39500353,74.6918765 C3.39500353,65.8292128 10.8406649,64.5069136 15.2777196,64.5069136 Z" id="Shape"></path>
                    <path d="M21.9135802,74.691358 C21.9135802,70.9468959 18.8679189,67.9012346 15.1234568,67.9012346 C11.3789947,67.9012346 8.33333333,70.9468959 8.33333333,74.691358 C8.33333333,78.4358201 11.3789947,81.4814815 15.1234568,81.4814815 C18.8679189,81.4814815 21.9135802,78.4358201 21.9135802,74.691358 Z M11.7283951,74.691358 C11.7283951,72.8187778 13.2508765,71.2962963 15.1234568,71.2962963 C16.996037,71.2962963 18.5185185,72.8187778 18.5185185,74.691358 C18.5185185,76.5639383 16.996037,78.0864198 15.1234568,78.0864198 C13.2508765,78.0864198 11.7283951,76.5639383 11.7283951,74.691358 Z" id="Shape"></path>
                    <path d="M78.0769703,79.5635108 C77.7443458,73.0651165 64.992924,69.6401532 51.4930001,66.0117324 C43.1393681,63.767094 30.5187228,60.377109 30.5555776,57.5677646 C30.5639124,56.914952 31.6860704,53.4323521 52.9652535,49.0083682 L52.2764949,45.6790123 C30.0957069,50.2903247 27.201633,54.430401 27.1604938,57.5220984 C27.0911888,62.7111365 36.0275887,65.377847 50.6122084,69.2954221 C60.6852152,72.0023577 74.4786199,75.7073422 74.6861708,79.7372366 C74.7914922,81.8011536 71.1589697,87.5890987 35.2321063,96.7048452 L36.064075,100 C73.7374693,90.4415831 78.3074682,84.0570628 78.0785803,79.5629279 L78.0769703,79.5635108 Z" id="Path"></path>
                    <polygon id="Path" points="28.7037037 96.6049383 32.0987654 96.6049383 32.0987654 100 28.7037037 100"></polygon>
                    <polygon id="Path" points="21.9135802 96.6049383 25.308642 96.6049383 25.308642 100 21.9135802 100"></polygon>
                </g>
            </g>
        </g>
    </g>
</svg>