<?xml version="1.0" encoding="UTF-8"?>
<svg width="200px" height="200px" viewBox="0 0 200 200" version="1.1" xmlns="http://www.w3.org/2000/svg" xmlns:xlink="http://www.w3.org/1999/xlink">
    <title>Group 3</title>
    <g id="Page-1" stroke="none" stroke-width="1" fill="none" fill-rule="evenodd">
        <g id="Group-3">
            <circle id="Oval" fill="#F7ECD8" cx="100" cy="100" r="100"></circle>
            <g id="Shape-2" transform="translate(59.000000, 50.000000)" fill="#C29F60" fill-rule="nonzero">
                <path d="M36.9258906,1.73327214 C39.3726839,-0.531946439 43.1357075,-0.582735259 45.6427776,1.6155444 C51.2987546,6.57610518 56.5791175,9.85877452 61.4598673,11.4858772 C66.3244316,13.1079195 71.4994961,14.3534921 76.986177,15.2226692 C80.1495949,15.7241019 82.4786251,18.4513871 82.4786251,21.6540594 L82.4786251,61.0498121 C82.4786251,68.7159473 78.7970868,75.9154951 72.5822468,80.4053756 L48.8640539,97.5347888 C44.3125943,100.821737 38.1660308,100.821737 33.6145712,97.5347888 L9.8963783,80.4053756 C3.68153831,75.9164253 0,68.7168775 0,61.0498121 L0,21.7284752 C0,18.5003155 2.36549394,15.7599517 5.55867821,15.2875971 C10.4109639,14.5695957 15.5648199,13.3029263 21.0189438,11.4847609 C26.2775401,9.73191409 31.2801459,6.75674967 36.0146685,2.55709098 L36.9258906,1.73327214 Z M42.781116,4.87920234 C41.9453888,4.14667128 40.6911467,4.16337764 39.8582473,4.93443193 L38.9135194,5.7905119 C33.7356644,10.3827142 28.2264727,13.6594303 22.3915256,15.6041026 C16.7063405,17.4994744 11.3084005,18.826309 6.19454307,19.5829322 C5.12989406,19.7406306 4.34214644,20.6541112 4.34214644,21.7296435 L4.34214644,61.0509805 C4.34214644,67.3233067 7.35375603,73.2140657 12.4391494,76.8868601 L36.1554819,94.0155292 C39.1901604,96.2072621 43.2874973,96.2072621 46.3221758,94.0155292 L70.0385082,76.8868601 C75.1240877,73.2140657 78.1355112,67.3233067 78.1355112,61.0509805 L78.1355112,21.6552277 C78.1355112,20.5876765 77.3593725,19.6785566 76.3049184,19.511493 C70.5879205,18.6052753 65.1810506,17.3037607 60.0859832,15.6054048 C54.5993023,13.7769887 48.8385851,10.1950002 42.7792742,4.88059206 L42.781116,4.87920234 Z M62.3376023,38.0854165 C63.1050157,38.8826336 63.1420748,40.1143648 62.4640515,40.9530314 L62.2801923,41.1543263 L35.23189,67.199875 C34.4564768,67.9469357 33.2632186,68.0043476 32.4230636,67.3721068 L32.2210432,67.199875 L20.1997202,55.6239309 C19.3363846,54.792557 19.3102275,53.418431 20.1423102,52.5550211 C20.9097237,51.7578041 22.1392596,51.6749606 23.0034137,52.3202949 L23.2112572,52.4968874 L33.7254731,62.6215364 L59.2687148,38.0270968 C60.1320503,37.1957229 61.5062135,37.2218987 62.3376246,38.0852342 L62.3376023,38.0854165 Z" id="Shape"></path>
            </g>
        </g>
    </g>
</svg>