<?xml version="1.0" encoding="UTF-8"?>
<svg width="200px" height="200px" viewBox="0 0 200 200" version="1.1" xmlns="http://www.w3.org/2000/svg" xmlns:xlink="http://www.w3.org/1999/xlink">
    <title>Group 12</title>
    <g id="Page-1" stroke="none" stroke-width="1" fill="none" fill-rule="evenodd">
        <g id="Group-12">
            <circle id="Oval" fill="#F7ECD8" cx="100" cy="100" r="100"></circle>
            <path d="M127.713445,113.980613 L145.52525,106.772894 C146.803896,106.298638 148.180247,106.356065 149.372067,106.848961 C150.610398,107.360474 151.659434,108.340817 152.210879,109.671999 C152.759863,110.991536 152.699379,112.325738 152.208553,113.520368 C151.723924,114.695544 150.80739,115.712311 149.659756,116.393083 L117.081206,135.693349 C112.967598,137.940533 109.954499,139.50754 106.54181,140.127707 C103.055675,140.761087 99.4127215,140.353577 94.193444,138.603242 L85.1102774,135.555068 C84.4015569,135.409141 83.5664487,135.338517 82.7258419,135.394395 C82.024883,135.441743 81.3262267,135.580684 80.7199544,135.839937 L77.868041,137.058571 L79.246714,140.781953 C79.6685359,141.934616 79.0776755,143.212147 77.9262028,143.633804 L61.1362994,149.863683 C59.9848148,150.285937 58.70859,149.694472 58.2873635,148.541821 L47.1361776,118.425704 C46.7143556,117.273042 47.305216,115.995511 48.4566887,115.573854 L65.2481801,109.343975 C66.3996648,108.921721 67.6758896,109.513186 68.097116,110.665837 L69.0663735,113.282418 C72.1648295,112.212815 74.8897001,110.799368 77.206644,109.598579 C79.0746106,108.629879 80.7007194,107.787697 82.2157053,107.274694 C83.4416291,106.84624 84.6892693,106.478314 86.1548276,106.203541 C87.6056173,105.930318 89.271943,105.747129 91.346116,105.685808 C96.7724337,105.525135 100.216883,106.643638 103.413797,107.680633 C105.042923,108.209235 106.60297,108.717648 108.281126,108.964463 L122.307451,110.037166 C124.564645,110.211035 126.225531,111.337309 127.16545,112.835366 C127.392638,113.197073 127.576414,113.582069 127.715208,113.978709 L127.713445,113.980613 Z M109.294416,94.8526263 C108.066944,94.8526263 107.071364,93.8567637 107.071364,92.6273004 C107.071364,91.3985724 108.066209,90.4019746 109.294416,90.4019746 L118.279124,90.4019746 C119.506596,90.4019746 120.502176,91.3978372 120.502176,92.6273004 C120.502176,93.8560284 119.507331,94.8526263 118.279124,94.8526263 L109.294416,94.8526263 Z M109.294416,84.6036882 C108.066944,84.6036882 107.071364,83.6078256 107.071364,82.3783624 C107.071364,81.1496343 108.066209,80.1530365 109.294416,80.1530365 L118.279124,80.1530365 C119.506596,80.1530365 120.502176,81.1488991 120.502176,82.3783624 C120.502176,83.6070904 119.507331,84.6036882 118.279124,84.6036882 L109.294416,84.6036882 Z M109.294416,74.3531605 C108.066944,74.3531605 107.071364,73.3572979 107.071364,72.1278346 C107.071364,70.8991066 108.066209,69.9025088 109.294416,69.9025088 L133.835521,69.9025088 C135.062993,69.9025088 136.058572,70.8983714 136.058572,72.1278346 C136.058572,73.3565626 135.063728,74.3531605 133.835521,74.3531605 L109.294416,74.3531605 Z M109.294416,64.1026328 C108.066944,64.1026328 107.071364,63.1067701 107.071364,61.8773069 C107.071364,60.6485789 108.066209,59.651981 109.294416,59.651981 L133.835521,59.651981 C135.062993,59.651981 136.058572,60.6478437 136.058572,61.8773069 C136.058572,63.1060349 135.063728,64.1026328 133.835521,64.1026328 L109.294416,64.1026328 Z M132.058906,79.6995859 C132.733504,78.6773349 134.111442,78.3971175 135.132549,79.0724251 C136.153755,79.7477128 136.433686,81.1270612 135.759069,82.1492128 L127.603315,94.4837853 C126.928717,95.5060363 125.550779,95.7862537 124.529672,95.1109461 C123.508466,94.4356584 123.228535,93.05631 123.903152,92.0341584 L132.058906,79.6995859 Z M125.75242,78.6625709 C127.276874,78.6625709 128.511235,79.8990684 128.511235,81.4242084 C128.511235,82.9486729 127.276775,84.184455 125.75242,84.184455 C124.229513,84.184455 122.994994,82.9487325 122.994994,81.4242084 C122.994994,79.8996844 124.229454,78.6625709 125.75242,78.6625709 Z M133.908174,89.9998302 C135.43108,89.9998302 136.665599,91.2355527 136.665599,92.7614678 C136.665599,94.2859322 135.431139,95.5217143 133.908174,95.5217143 C132.383719,95.5217143 131.149359,94.2859918 131.149359,92.7614678 C131.149359,91.2354534 132.383818,89.9998302 133.908174,89.9998302 Z M106.468903,50 L136.663415,50 C139.100454,50 141.32291,51.0005325 142.935759,52.6126071 L142.948941,52.6258025 C144.557144,54.2410763 145.555106,56.4626466 145.555106,58.9005895 L145.555106,94.9024236 C145.555106,97.3419562 144.555596,99.5666859 142.945169,101.181185 L142.931987,101.19438 C141.318365,102.804229 139.099065,103.803212 136.663614,103.803212 L106.469102,103.803212 C104.032063,103.803212 101.809607,102.802679 100.196758,101.190605 L100.183576,101.177409 C98.5753726,99.5621353 97.5774113,97.340565 97.5774113,94.9026221 L97.5774113,58.900788 C97.5774113,56.4612554 98.5769209,54.2365257 100.187348,52.6220268 L100.20053,52.6088314 C101.814153,50.9989823 104.033452,50 106.468903,50 L106.468903,50 Z M136.663415,54.4500558 L106.468903,54.4500558 C105.24298,54.4500558 104.130322,54.9491496 103.330747,55.7501993 C102.522,56.5597736 102.023416,57.6728538 102.023416,58.9007075 L102.023416,94.9025416 C102.023416,96.1297197 102.522,97.2435153 103.322231,98.0439093 C104.130978,98.8534836 105.24292,99.3525774 106.469519,99.3525774 L136.664031,99.3525774 C137.889954,99.3525774 139.002612,98.8534836 139.802188,98.0524338 C140.610934,97.2428595 141.109518,96.1297793 141.109518,94.9019256 L141.109518,58.9000915 C141.109518,57.6729134 140.610934,56.5591179 139.810703,55.7587239 C139.001957,54.9491496 137.890014,54.4500558 136.663415,54.4500558 Z M147.042221,110.950561 L127.050837,119.047894 C126.162986,120.354237 124.681091,121.402181 122.55888,121.81589 L104.833028,125.272408 C103.630369,125.502153 102.465664,124.712768 102.236193,123.508878 C102.006682,122.304989 102.795261,121.139092 103.99792,120.909386 L121.723772,117.452868 C122.6783,117.267357 123.242788,116.859845 123.471544,116.398784 C123.56847,116.20318 123.609566,115.98895 123.59871,115.782473 C123.587854,115.583765 123.523495,115.381958 123.412612,115.204194 C123.173791,114.823073 122.687614,114.528906 121.976551,114.47456 L107.906755,113.397962 L107.654753,113.365362 C105.614723,113.065751 103.874633,112.500667 102.058714,111.910763 C99.2044187,110.985541 96.1268057,109.985009 91.4675092,110.12317 C89.6646918,110.175951 88.2231525,110.335072 86.9717804,110.570262 C85.7443083,110.800008 84.6913613,111.112833 83.650007,111.476866 L83.6236436,111.48618 C82.4613008,111.878945 80.9624929,112.655912 79.2394743,113.549361 C76.8117649,114.806802 73.9667991,116.283179 70.6085008,117.447407 L76.3248335,132.890759 L78.9822125,131.755185 C80.0801804,131.287129 81.2719614,131.042639 82.4328154,130.962679 C83.741714,130.873416 85.0373923,130.991399 86.1222191,131.225808 L95.6016006,134.397379 C100.054055,135.890786 103.044723,136.259488 105.760264,135.766593 C108.492877,135.271375 111.212983,133.849384 114.955785,131.802577 L147.403322,112.570666 C147.742169,112.369634 147.999609,112.106505 148.111268,111.834832 C148.169424,111.691234 148.177178,111.531346 148.113594,111.377646 C148.030626,111.178163 147.871657,111.029133 147.687902,110.954617 C147.505681,110.879325 147.295538,110.866906 147.095485,110.929779 L147.042758,110.952289 L147.042221,110.950561 Z M64.7025746,114.290636 L52.075905,118.974968 L61.6825279,144.9222 L74.3078079,140.237868 L64.7019791,114.290636 L64.7025746,114.290636 Z" id="Shape" fill="#C29F60" fill-rule="nonzero"></path>
        </g>
    </g>
</svg>