<?xml version="1.0" encoding="UTF-8"?>
<svg version="1.1" viewBox="0 0 1708 1708" width="1280" height="1280" xmlns="http://www.w3.org/2000/svg">
<path transform="translate(0)" d="m0 0h1708v1708h-1708z"/>
<path transform="translate(876,315)" d="m0 0h92l25 2 16 4 13 5 12 7 10 9 6 8 5 10 3 11v14l-3 12-8 16-9 10-7 6-12 6h-3v2l9 3 16 8 11 8 12 12 8 13 5 14 2 12v10l-2 14-4 12-6 12-10 13-9 8-13 8-15 6-19 5-15 2-19 1h-90l-1-1z" fill="#FEFEFE"/>
<path transform="translate(204,333)" d="m0 0h64l21 3 20 6 16 8 11 8 10 9 11 14 8 16 6 18 3 16 1 11v25l-3 21-6 19-8 18-10 15-9 10-10 9-11 7-16 8-19 5-18 2h-43l-22-1 1-8 6-26 4-22 3-21 2-26v-51l-3-34-5-29-6-25-1-4z"/>
<!-- <path transform="translate(1707,1313)" d="m0 0h1v395h-402l4-2 11-2 62-6 30-5 17-4 36-12 19-7 27-13 20-13 16-11 16-12 13-11 10-9 12-11 8-8 7-8 11-13 13-18 12-20 9-16 10-22 10-28 9-27 5-18 6-36 4-33 3-29z" fill="#FEFEFE"/> -->
<!-- <path transform="translate(1341)" d="m0 0h367v392h-2l-4-45-5-36-6-29-14-43-12-29-10-20-15-25-12-17-13-16-11-12-25-25-11-9-19-14-18-12-19-11-27-14-34-13-24-7-32-6-50-7z" fill="#FEFEFE"/> -->
<!-- <path transform="translate(0,1359)" d="m0 0 2 3 8 48 6 24 18 50 9 20 9 17 13 21 12 16 8 10 12 14 24 24 8 7 16 13 19 14 20 13 14 8 30 13 35 12 23 6 28 5 47 5 30 3 10 2v1h-401z" fill="#FEFEFE"/> -->
<!-- <path transform="translate(0)" d="m0 0h350l-1 2-31 5-24 4-25 6-36 12-23 10-23 12-23 14-15 11-13 10-13 11-8 8h-2v2l-8 7-6 7h-2l-2 4-13 15-13 18-10 15-12 21-11 23-14 40-7 16-7 30-6 37-2 4z" fill="#FEFEFE"/> -->
<path transform="translate(1275,315)" d="m0 0h18l11 25 19 45 17 40 19 45 34 80 13 31 6 14-1 3h-28l-3-4-23-54-11-26-127 1-10 24-24 57-2 2-30-1 1-5 32-74 60-138 22-51 6-13z" fill="#FEFEFE"/>
<path transform="translate(245,315)" d="m0 0h15l27 2 25 5 20 7 16 8 15 9 13 11 13 13 11 16 8 16 5 14 3 13 2 17v15l-4 25-6 18-8 16-9 14-9 11-14 14-13 10-21 12-14 6-25 7-21 3h-116l-1-3 7-21 6-23 5-23 4-28 2-24v-42l-3-32-5-28-7-27-7-20-3-6v-3h19zm-41 18-3 2 5 18 5 26 3 22 2 25v51l-3 34-5 30-6 27-2 8v4l22 1h43l18-2 19-5 16-8 11-7 12-11 8-9 11-18 8-19 4-14 3-21v-25l-2-18-5-19-6-15-8-13-9-11-11-10-14-9-14-6-17-5-21-3z" fill="#FEFEFE"/>
<path transform="translate(283,759)" d="m0 0h31l2 3-1 127h161v-129l1-1h31l1 1 1 280-2 2h-31l-1-2-1-127h-159l-1 128-1 1h-31l-1-2v-279z" fill="#FEFEFE"/>
<path transform="translate(519,315)" d="m0 0h30l2 1v154l1 33 4 21 6 16 6 11 7 9 8 9 11 8 10 6 17 6 11 2h23l16-3 13-5 15-9 13-12 11-15 8-17 4-12 3-18 1-185h25l2 1v166l-3 26-5 19-6 15-8 15-11 14-12 12-16 11-17 8-19 5-7 1h-34l-17-3-21-7-17-9-12-9-13-13-9-13-9-17-7-21-3-15-1-8-1-40v-83z" fill="#FEFEFE"/>
<path transform="translate(909,442)" d="m0 0h49l22 1 16 4 10 4 13 9 7 7 7 11 6 16 2 14v10l-3 16-5 12-7 11-10 10-14 9-13 5-17 3h-29l-15-2-8-4-5-5-4-8-2-13z"/>
<path transform="translate(1321,756)" d="m0 0h19l19 3 9 4v12l-7-1-11-3-9-1h-19l-13 3-10 5-10 10-5 10-2 8v14l4 11 6 9 8 8 18 12 21 12 26 15 12 8 12 9 10 9 9 10 8 14 4 10 2 10v16l-4 15-8 15-11 12-13 10-21 10-18 5-19 2-22-1-5-1-1-3v-10l1-1 11 1h25l16-4 16-8 8-7 6-10 3-10v-21l-5-15-9-13-10-10-18-13-22-13-26-15-14-10-13-12-7-8-7-12-4-12-1-13 3-17 5-12 7-11 7-7 10-7 13-6 11-3z" fill="#FEFEFE"/>
<path transform="translate(496,1212)" d="m0 0h24l19 29 32 48 7 11 4-4 56-84h23v179h-23l-1-145-8 11-40 60-7 11-2 3-3-1-32-48-23-34-1-3h-2l1 5v140l-1 1h-23z" fill="#FEFEFE"/>
<path transform="translate(774,759)" d="m0 0h32l1 1v264h140v17l-2 1h-170l-1-1z" fill="#FEFEFE"/>
<path transform="translate(1039,759)" d="m0 0h32l1 6-1 259h140l1 1-1 16-1 1h-171l-1-12v-269z" fill="#FEFEFE"/>
<path transform="translate(806,1211)" d="m0 0 4 1 11 25 11 26 18 43 19 45 13 31 4 9v2h-21l-7-14-15-36-1-2h-79l-10 24-8 20-4 8h-22l1-5 12-27 18-42 16-37 13-30 15-35 3-5z" fill="#FEFEFE"/>
<path transform="translate(910,330)" d="m0 0h54l17 2 17 5 12 7 8 9 5 12 2 11v12l-3 13-7 11-8 7-12 6-11 3-6 1-68 1-1-1v-98z"/>
<path transform="translate(1516,315)" d="m0 0h31l1 1v281l-1 1h-31l-1-1v-281z" fill="#FEFEFE"/>
<path transform="translate(625,759)" d="m0 0h32l1 1v281l-2 1h-30l-1-1z" fill="#FEFEFE"/>
<path transform="translate(1282,366)" d="m0 0h2l10 23 13 31 17 40 12 29v1h-106l3-9 23-53 20-47z"/>
<path transform="translate(944,1212)" d="m0 0h23l1 167h86l1 1v12l-1 1h-109l-1-1z" fill="#FEFEFE"/>
<path transform="translate(1111,1212)" d="m0 0h22l1 1v167l15-1h71l2 1v12l-1 1h-110z" fill="#FEFEFE"/>
<path transform="translate(802,1248)" d="m0 0h2l14 34 16 38v2h-62l1-5 12-29 14-33z"/>
</svg>
